<?xml version="1.0" standalone="no"?>
<!DOCTYPE svg PUBLIC "-//W3C//DTD SVG 20010904//EN"
 "http://www.w3.org/TR/2001/REC-SVG-20010904/DTD/svg10.dtd">
<svg version="1.0" xmlns="http://www.w3.org/2000/svg"
 width="260.000000pt" height="260.000000pt" viewBox="0 0 260.000000 260.000000"
 preserveAspectRatio="xMidYMid meet">
<metadata>
Created by potrace 1.14, written by Peter Selinger 2001-2017
</metadata>
<g transform="translate(0.000000,260.000000) scale(0.100000,-0.100000)"
fill="#000000" stroke="none">
<path d="M783 2409 c-100 -49 -166 -188 -179 -374 -20 -275 113 -472 316 -469
114 1 196 57 245 166 57 125 44 337 -30 492 -33 71 -118 164 -170 187 -54 25
-130 24 -182 -2z"/>
<path d="M1629 2411 c-20 -11 -57 -43 -82 -71 -119 -132 -171 -301 -147 -478
19 -145 64 -223 156 -268 81 -40 179 -39 253 2 138 75 209 256 183 468 -14
114 -32 176 -74 246 -48 80 -102 114 -186 117 -52 3 -75 -1 -103 -16z"/>
<path d="M223 1719 c-48 -24 -88 -77 -109 -146 -33 -105 -10 -323 44 -430 31
-60 95 -126 153 -158 46 -26 64 -30 124 -29 143 1 223 80 246 242 19 134 -44
301 -158 422 -107 114 -205 146 -300 99z"/>
<path d="M2202 1720 c-54 -24 -155 -119 -197 -185 -44 -69 -74 -154 -86 -246
-20 -144 23 -250 123 -304 44 -24 65 -29 123 -29 59 0 79 5 124 29 134 73 211
236 212 448 0 143 -46 248 -125 287 -53 25 -118 25 -174 0z"/>
<path d="M1243 1480 c-115 -23 -186 -91 -271 -256 -78 -154 -134 -228 -236
-313 -45 -38 -97 -86 -115 -107 -132 -149 -125 -415 13 -542 80 -74 116 -87
241 -87 95 0 125 4 225 34 137 39 225 48 295 28 222 -64 248 -69 334 -65 102
4 176 33 236 93 77 77 124 234 105 350 -17 104 -73 185 -205 295 -103 86 -169
173 -240 317 -35 71 -72 129 -101 158 -74 76 -185 114 -281 95z"/>
</g>
</svg>
