<?xml version="1.0" encoding="utf-8"?>
<!-- Generator: Adobe Illustrator 25.4.1, SVG Export Plug-In . SVG Version: 6.00 Build 0)  -->
<svg version="1.1" id="Ebene_1" xmlns="http://www.w3.org/2000/svg" xmlns:xlink="http://www.w3.org/1999/xlink" x="0px" y="0px"
	 viewBox="0 0 150 120.32" style="enable-background:new 0 0 150 120.32;" xml:space="preserve">
<style type="text/css">
	.st0{fill:#FFFFFF;}
	.st1{fill:#9C9B9B;}
</style>
<path class="st0" d="M22.65,114.1l-21.67-8.69v-0.1l21.67-8.39V114.1z M23.64,96.53l11.6-4.64V90.8L0,104.72V106l35.24,14.31v-1.14
	l-11.6-4.69C23.64,114.48,23.64,96.53,23.64,96.53z"/>
<path class="st0" d="M0.99,87.69V74.02c0-6.71,2.96-9.48,7.95-9.53c6.17-0.05,8.79,4.84,8.79,10.02v13.18
	C17.73,87.69,0.99,87.69,0.99,87.69z M18.71,87.69V74.42c0-8.09,3.36-9.33,9.13-9.33c2.27,0,5.92-0.15,7.4-0.74v-1.09
	c-0.99,0.64-5.13,0.84-7.26,0.84c-5.63,0-8.98,0.99-9.77,6.96h-0.1c-1.09-4.94-4.44-7.65-9.08-7.55C2.96,63.66,0,67.01,0,74.27
	v14.41h35.24v-0.99C35.24,87.69,18.71,87.69,18.71,87.69z"/>
<path class="st0" d="M0.99,62.03H0V35.67h0.99v12.68h34.25v0.99H0.99V62.03z"/>
<path class="st0" d="M10.99,31.61c0-1.87,1.06-2.3,1.75-2.3c0.69,0,1.75,0.43,1.75,2.3s-1.06,2.3-1.75,2.3
	C12.05,33.91,10.99,33.48,10.99,31.61z M8.28,31.61c0,2.56,1.79,4.39,4.46,4.39s4.46-1.83,4.46-4.39s-1.79-4.39-4.46-4.39
	S8.28,29.05,8.28,31.61z"/>
<path class="st0" d="M18.35,27.41h6.81v2.15h-4.09v1.05h3.51v2h-3.51v3.19h-2.71v-8.39H18.35z"/>
<path class="st1" d="M25.16,0.43h11.06v26.3h15.89v9.07H25.16V0.43z"/>
<path class="st1" d="M62.48,18.12c0-7.7,4.25-9.49,7.02-9.49c2.77,0,7.03,1.79,7.03,9.49s-4.25,9.49-7.03,9.49
	C66.74,27.61,62.48,25.82,62.48,18.12z M51.6,18.12c0,10.56,7.17,18.12,17.91,18.12c10.73,0,17.91-7.56,17.91-18.12S80.24,0,69.51,0
	C58.77,0,51.6,7.56,51.6,18.12z"/>
<polygon class="st1" points="89.54,0.43 89.54,35.8 100.6,35.8 100.6,22.33 114.93,22.33 114.93,13.91 100.6,13.91 100.6,9.5 
	128.88,9.5 128.88,35.8 139.94,35.8 139.94,9.5 150,9.5 150,0.43 "/>
</svg>
