<?xml version="1.0" encoding="utf-8"?>
<!-- Generator: Adobe Illustrator 25.4.1, SVG Export Plug-In . SVG Version: 6.00 Build 0)  -->
<svg version="1.1" id="Ebene_1" xmlns="http://www.w3.org/2000/svg" xmlns:xlink="http://www.w3.org/1999/xlink" x="0px" y="0px"
	 viewBox="0 0 735.6 350.8" style="enable-background:new 0 0 735.6 350.8;" xml:space="preserve">
<style type="text/css">
	.st0{fill:#B98144;}
	.st1{fill:#D49F6C;}
	.st2{fill:#48333B;}
	.st3{fill:none;stroke:#48333B;stroke-width:2;stroke-miterlimit:10;}
	.st4{fill:#F05847;}
	.st5{fill:#FFE6D5;}
</style>
<path class="st0" d="M383.9,238.5c0,0,28-15.5,55.1,13.6s34.1,36.3,52.8,45.8c18.7,9.5,69.3,37.5,69.3,37.5s22-2,22.7,3
	c1.7,11.8,3.1,9.1-30.5,9.1c-1.4,0-2.7-0.3-4-0.7c-16-6.1-57.4-22-65.8-25.2C473,317.5,344.6,289.9,383.9,238.5z"/>
<path class="st0" d="M433.9,159.1c-4.3-19.2-9-29.3-16.8-41c0,0-16.3,36-5.5,52.5C422.4,187.2,433.9,159.1,433.9,159.1z"/>
<path class="st0" d="M138.7,168.3c8-37.7,33.4-59.4,33.4-59.4l40.8,40.3c0,0-1.1,10.1-0.5,57.8c0.5,47.7-28.6,78.5-32.9,85.9
	c-4.2,7.4,4.2,34.5,4.8,38.7c0.5,4.2,3.7,4.2,12.2,6.4c8.5,2.1,5.3,12.7,5.3,12.7h-27.6c0,0-18.6-50.9-20.2-56.8
	c-1.6-5.8,2.1-12.7,8.5-28.6C168.9,249.4,130.7,206,138.7,168.3z"/>
<path class="st1" d="M162.1,95.7c14.5-4.3,30.5-1.5,43.3,6.2c12.4,7.4,24.1,16.2,30.8,29.2c2.3,4.5,4.2,9.3,6.8,13.7
	c25.9,44.6,113,41.7,113.2,41.8c8.6,1.5,18,5.2,25.9,8.8c10.4,4.9,20.5,12,24.9,22.6c8.8,21.7-54.5,79-106.6,62.8
	c-8.7-2.7-16.9-7-24.8-11.7c-19.7-11.7-37.7-26.3-53.2-43.2c-8.6-9.3-16.4-19.3-25.8-27.7c-3.9-3.4-8-6.6-12.4-9.4
	c0,5.4,0.1,11.4,0.1,18.3c0.5,47.7-28.6,78.5-32.9,85.9c-4.2,7.4,4.2,34.5,4.8,38.7c0.5,4.2,3.7,4.2,12.2,6.4
	c8.5,2.1,5.3,12.7,5.3,12.7h-27.6c0,0-18.6-50.9-20.2-56.8c-1.6-5.8,2.1-12.7,8.5-28.6C134.5,265.1,71.4,122.7,162.1,95.7z"/>
<path class="st1" d="M6.7,19.2c8.2-11,21.7-17,35.2-19.2C26,9.9,18.5,31.1,23.6,49.1c5,18,21.6,31.9,40.1,34.9
	c14.3,2.3,28.8-1.4,43.2-0.7c22.4,1.2,43.9,13.7,55.9,32.7c-3.4-5-8.3-9.1-14.1-10.8c-5.8-1.7-12.5-0.8-17.2,3.1
	c-4.2,3.4-6.4,8.7-9.2,13.3c-4.1,6.7-10,12.4-17.3,15.4s-16,2.7-22.6-1.4c-7.2-4.5-11.2-12.8-13-21c-0.9-4.3-2.2-9.7-6.5-10.7
	c-2.8-0.6-5.6,1-7.7,3c-6.7,6.3-10.6,16.7-19.6,18.5c-5.4,1.1-10.8-1.4-15.5-4.2C14,117.3,8,112.8,4.4,106.5
	c-5.4-9.4-4-22.3,3.2-30.3c2.1-2.4,4.8-4.6,5.2-7.8c0.5-4.4-3.6-7.8-6.5-11.1C-2.8,47-1.5,30.3,6.7,19.2z"/>
<g>
	<path class="st1" d="M401.2,156.6c26.9-3.2,47.8,2.2,52.7,11.8c4.8,9.7,9.1,15.1,14.5,14.5c5.4-0.5,40.9-3.2,40.9-3.2
		s-0.1,20.4-23.6,26.5c-25.4,6.6-33.1,12.3-36.1,18.7c-10.1,21.5-51,29.1-73.6,26.4l-9.2-63.5C366.8,187.8,374.4,159.8,401.2,156.6z
		"/>
	<path class="st2" d="M448,188.3c0.7,2.2,2.6,3.5,4.2,2.9c1.6-0.5,2.3-2.7,1.5-4.9c-0.7-2.2-2.6-3.5-4.2-2.9
		C448,183.9,447.3,186.1,448,188.3z"/>
	<path class="st2" d="M506.9,189.5c-0.5-0.7-0.4-1.7-0.6-2.5c-0.4-1.3-1.8-2-3.1-2.2c-1.3-0.2-2.7,0-4-0.2c-0.7-0.1-1.5-0.4-1.9-1
		c-0.3-0.4-0.4-1-0.4-1.6c0-0.5,0.2-1,0.4-1.4c6.8-0.5,12.2-0.9,12.2-0.9S509.3,184.2,506.9,189.5z"/>
</g>
<path class="st1" d="M342.2,193c24.4-30,44.4-18.7,44.4-18.7l17,17.8c0,0-27.4,24.4-29.6,26.1C371.8,220,317.8,223,342.2,193z"/>
<path class="st1" d="M396.2,139.9c11.8,10.9,22.6,27.4,22.6,27.4l-20.9,23.5c-18.7-9.1-19.6-64.4-19.6-64.4S384.4,129,396.2,139.9z"
	/>
<path class="st1" d="M350.8,241.5c0,0,28-15.5,55.1,13.6s34.1,36.3,52.8,45.8c18.7,9.5,69.3,37.5,69.3,37.5s22-2,22.7,3
	c1.7,11.8,3.1,9.1-30.5,9.1c-1.4,0-2.7-0.3-4-0.7c-16-6.1-57.4-22-65.8-25.2C439.9,320.6,311.5,292.9,350.8,241.5z"/>
<g>
	<path class="st3" d="M184.1,188.7c0.1-8.8,14.2-13,14.2-13"/>
	<path class="st3" d="M504.5,193c0,0-38.6,16.8-55.6,9.1"/>
	<path class="st3" d="M383.2,137c11.7,3.8,24.7,25.4,24.7,25.4"/>
	<path class="st3" d="M391.1,173.5c0,0-3.2-5.4-5.3-14.9c-1.4-6.4-2.7-14.7-2.6-21.6"/>
	<path class="st3" d="M347.2,274.7c-6.6-19.5,0-32,0-32"/>
	<path class="st3" d="M371.6,233.3c12.9-0.3,24.4,9.9,24.4,9.9"/>
	<path class="st3" d="M444.3,221.7c0,0-20.5,4.3-32.4-6.9"/>
	<path class="st3" d="M341.2,204.5c0.7-8.3,7.6-14.9,7.6-14.9"/>
	<path class="st3" d="M227.2,220.7c-7.9-19.2-8.6-26.4-8.6-26.4"/>
</g>
<g>
	<g>
		
			<ellipse transform="matrix(0.9239 -0.3827 0.3827 0.9239 -66.724 290.954)" class="st4" cx="698" cy="313.2" rx="37.6" ry="37.6"/>
		<g>
			<path class="st5" d="M706.1,347.2c-2.4-7.4-5.1-12.4-11-14.4c-5.2-1.7-12.3-1.1-24.5,0.2c-1.6,0.2-3.1,0.2-4.6,0
				c1.1,1.8,2.4,3.6,3.9,5.2c0.4,0,0.8-0.1,1.2-0.1c23.2-2.5,25.9-2.4,30.1,10.7c0.2,0.6,0.3,1.3,0.3,1.9c1.7-0.2,3.4-0.4,5.1-0.8
				C706.5,348.9,706.4,348.1,706.1,347.2z"/>
			<path class="st5" d="M735.6,313.2c0-0.3,0-0.6,0-0.9c-3.5,5.6-8.6,9.6-15.3,12.1c-8.8,3.2-15.5,2.5-19.5-2.2
				c-4.8-5.6-4.9-16.1-0.2-24.4c4.3-7.7,5.1-15.1,2.5-21.8c-1.6-0.2-3.3-0.3-5-0.3c-0.3,0-0.5,0-0.8,0c0.1,0.1,0.1,0.2,0.2,0.3
				c3.1,5.8,2.7,12.2-1.3,19.3c-5.7,10.2-5.4,22.9,0.8,30.2c2.2,2.6,6.5,6,13.8,6c3.2,0,6.9-0.6,11.4-2.3c4.9-1.8,9.2-4.5,12.6-7.8
				C735.3,318.7,735.6,316,735.6,313.2z"/>
		</g>
	</g>
</g>
</svg>
