<?xml version="1.0" encoding="utf-8"?>
<!-- Generator: Adobe Illustrator 26.0.1, SVG Export Plug-In . SVG Version: 6.00 Build 0)  -->
<svg version="1.1" id="Ebene_1" xmlns="http://www.w3.org/2000/svg" xmlns:xlink="http://www.w3.org/1999/xlink" x="0px" y="0px"
	 viewBox="0 0 500 174.6" style="enable-background:new 0 0 500 174.6;" xml:space="preserve">
<style type="text/css">
	.st0{fill:#5A4650;}
</style>
<g>
	<path class="st0" d="M119,158.9c0,11.5-8.3,17.6-18.7,15.1c-2.4-0.6-4.8-1.3-7.1-2c-3.1-1-6.1-0.9-9.3,0c-3.3,0.9-6.6,2-10,2.5
		c-9.9,1.4-16.2-6.3-15.8-15.1c0.3-5.5,3.1-9.8,7.5-13c4.7-3.5,8-8.1,10.3-13.4c1.4-3.2,3.2-6,6.1-7.9c5.6-3.8,12.6-2.2,16.7,3.7
		c0.9,1.3,1.6,2.7,2.3,4.2c2.3,5.3,5.6,9.7,10.2,13.3C115.9,149.7,118.9,154.2,119,158.9z"/>
	<path class="st0" d="M84.6,106.5c0,1.4-0.4,4-1.3,6.2c-3.4,8.1-13.3,9.3-18.6,2.2c-3.1-4.1-3.7-8.9-3.4-13.9
		c0.2-3.1,0.8-6.2,2.2-9.1c0.4-0.8,0.8-1.5,1.3-2.2c3.5-4.9,9-5.3,13.3-1.1c3.4,3.4,5,7.6,5.9,12.2C84.5,102.4,84.6,105,84.6,106.5z
		"/>
	<path class="st0" d="M115.9,103.4c0,3.5-0.6,7.1-2.7,10.3c-2.5,3.9-6,6.2-10.8,5.6c-5-0.6-8.1-3.8-9.2-8.5
		c-2-8.2-0.1-15.8,5.6-22.1c4.4-4.9,10.7-4,14,1.7C114.8,93.7,115.9,98.1,115.9,103.4z"/>
	<path class="st0" d="M135.9,123.9c-0.3,6.2-1.2,11.2-4.7,15.3c-2.5,3-5.7,4.8-9.8,4.3c-5-0.6-8.5-4.7-8.5-10.1
		c0.1-7.7,3.3-14.1,9.6-18.6c5.1-3.7,10.5-1.7,12.5,4.3C135.6,120.9,135.7,122.9,135.9,123.9z"/>
	<path class="st0" d="M64.2,131.3c0,6.5-2.4,10.4-6.6,11.8c-3.9,1.3-7.3,0.1-10.3-2.5c-3.7-3.3-5.1-7.7-5.7-12.5
		c-0.4-3-0.4-6,0.5-8.9c2-6.2,7.5-8.2,12.8-4.3C60.8,119.2,63.5,125.4,64.2,131.3z"/>
</g>
<path class="st0" d="M60.6,70.7v-65c0-1.6-0.5-2.9-1.5-4c-1-1-2.4-1.6-4.1-1.6c-1.5,0-2.8,0.5-4,1.6c-1.1,1.1-1.7,2.4-1.7,4v26.9
	H11.4V5.7c0-1.6-0.6-2.9-1.7-4c-1.1-1-2.4-1.6-3.9-1.6c-1.7,0-3.2,0.5-4.2,1.6C0.5,2.7,0,4.1,0,5.7v65c0,1.6,0.5,2.9,1.5,4
	c1,1,2.4,1.6,4.1,1.6c1.5,0,2.8-0.5,4-1.6c1.1-1.1,1.7-2.4,1.8-4V43.1h37.8v27.6c0,1.6,0.5,2.9,1.6,4c1.1,1,2.4,1.6,3.9,1.6
	c1.7,0,3.1-0.5,4.2-1.6C60,73.6,60.6,72.3,60.6,70.7z"/>
<path class="st0" d="M90.9,73c4.5,2.6,9.5,3.9,15.3,3.9c5.8,0,10.9-1.3,15.3-3.9c4.4-2.6,7.9-6.1,10.4-10.7
	c2.5-4.6,3.8-9.7,3.8-15.5V5.5c0-1.5-0.5-2.8-1.5-3.9S132,0,130.5,0c-1.6,0-2.8,0.5-3.8,1.6s-1.4,2.4-1.4,3.9v41.2
	c0,3.8-0.9,7.2-2.7,10.1c-1.8,2.9-4.2,5.1-7.1,6.7c-2.9,1.6-6.1,2.4-9.5,2.4c-3.2,0-6.2-0.8-9-2.4c-2.8-1.6-5.1-3.9-6.8-6.7
	c-1.7-2.9-2.6-6.2-2.6-10.1V5.5c0-1.5-0.6-2.8-1.7-3.9C85,0.5,83.7,0,82.3,0c-1.7,0-3.2,0.5-4.2,1.6C77,2.7,76.5,4,76.5,5.5v41.2
	c0,5.8,1.3,11,3.9,15.5C82.9,66.9,86.4,70.4,90.9,73z"/>
<path class="st0" d="M156.6,76.2c1.5,0,2.6-0.5,3.6-1.5c0.9-1,1.4-2.2,1.4-3.5V20l42.2,54.6c0.4,0.5,1,0.9,1.8,1.2
	c0.8,0.3,1.6,0.4,2.4,0.4c1.6,0,2.9-0.5,4-1.6c1-1.1,1.6-2.4,1.6-4V5.2c0-1.5-0.5-2.7-1.4-3.6c-0.9-1-2.1-1.5-3.5-1.5
	c-1.5,0-2.7,0.5-3.6,1.5c-0.9,1-1.4,2.2-1.4,3.6v51.5l-42-54.6c-0.4-0.7-1.1-1.1-2-1.5c-0.9-0.3-1.8-0.5-2.6-0.5
	c-1.6,0-2.9,0.5-4,1.6c-1.1,1.1-1.6,2.4-1.6,4v65.6c0,1.4,0.5,2.6,1.4,3.5C153.9,75.7,155.1,76.2,156.6,76.2z"/>
<path class="st0" d="M235.3,76.2h26.5c7.1,0,13-1.7,17.8-5.1c4.8-3.4,8.4-8,10.9-13.8c2.5-5.8,3.7-12.2,3.7-19.2
	c0-5.1-0.7-10-2.1-14.6c-1.4-4.6-3.4-8.7-6.2-12.2c-2.8-3.5-6.1-6.3-10.2-8.3c-4-2-8.7-3-14-3h-26.5c-1.6,0-2.9,0.5-4,1.6
	c-1.1,1.1-1.6,2.4-1.6,4v65c0,1.6,0.5,2.9,1.6,4C232.4,75.7,233.7,76.2,235.3,76.2z M270.6,12.8c2.7,1.5,5,3.5,6.7,6.1
	c1.8,2.6,3.1,5.5,3.9,8.9c0.8,3.3,1.3,6.8,1.3,10.4c0,5-0.7,9.6-2.2,13.8c-1.5,4.2-3.8,7.5-7.1,10.1c-3.2,2.5-7.4,3.8-12.4,3.8
	h-19.6V10.5h19.6C264.6,10.5,267.9,11.3,270.6,12.8z"/>
<path class="st0" d="M354.1,74.7c1-1,1.6-2.2,1.6-3.8c0-1.4-0.5-2.6-1.6-3.6c-1.1-1-2.4-1.6-4-1.6h-31.6V42.5h26.7
	c1.6,0,2.9-0.5,4-1.4c1-0.9,1.6-2.2,1.6-3.7c0-1.6-0.5-2.9-1.6-3.9c-1.1-1-2.4-1.5-4-1.5h-26.7V10.5h31.6c1.6,0,2.9-0.5,4-1.4
	c1-0.9,1.6-2.2,1.6-3.7s-0.5-2.8-1.6-3.8c-1.1-1-2.4-1.5-4-1.5h-37.5c-1.6,0-2.9,0.5-4,1.6c-1.1,1.1-1.6,2.4-1.6,4v65
	c0,1.6,0.5,2.9,1.6,4c1,1,2.4,1.6,4,1.6h37.5C351.7,76.2,353.1,75.7,354.1,74.7z"/>
<path class="st0" d="M42,158.2H11.4V98.3c0-1.6-0.6-2.9-1.7-4c-1.1-1-2.4-1.6-3.9-1.6c-1.7,0-3.2,0.5-4.2,1.6
	c-1.1,1.1-1.6,2.4-1.6,4v65c0,1.6,0.5,2.9,1.6,4c1,1,2.4,1.6,4,1.6H42c1.6,0,2.9-0.5,4-1.5c1-1,1.6-2.3,1.6-3.8s-0.5-2.8-1.6-3.8
	C44.9,158.7,43.6,158.2,42,158.2z"/>
<path class="st0" d="M201.1,92.7c-1.6,0-2.8,0.5-3.8,1.6c-0.9,1.1-1.4,2.4-1.4,3.9v41.2c0,3.8-0.9,7.2-2.7,10.1
	c-1.8,2.9-4.2,5.1-7.1,6.7c-2.9,1.6-6.1,2.4-9.5,2.4c-3.2,0-6.2-0.8-9-2.4c-2.8-1.6-5.1-3.9-6.8-6.7c-1.7-2.9-2.6-6.2-2.6-10.1V98.2
	c0-1.5-0.6-2.8-1.7-3.9c-1.1-1.1-2.4-1.6-3.8-1.6c-1.7,0-3.2,0.5-4.2,1.6c-1.1,1.1-1.6,2.4-1.6,3.9v41.2c0,5.8,1.3,11,3.9,15.5
	c2.6,4.6,6.1,8.1,10.5,10.7c4.5,2.6,9.5,3.9,15.3,3.9c5.8,0,10.9-1.3,15.3-3.9c4.4-2.6,7.9-6.1,10.4-10.7c2.5-4.6,3.8-9.7,3.8-15.5
	V98.2c0-1.5-0.5-2.8-1.5-3.9C203.9,93.2,202.7,92.7,201.1,92.7z"/>
<path class="st0" d="M264.5,92.8h-36.7c-1.6,0-2.9,0.5-4,1.6c-1.1,1.1-1.6,2.4-1.6,4v65c0,1.6,0.5,2.9,1.6,4c1,1,2.4,1.6,4.2,1.6
	c1.5,0,2.8-0.5,3.9-1.6c1.1-1.1,1.6-2.4,1.6-4v-27.7h26.1c1.5,0,2.8-0.5,3.9-1.6c1.1-1,1.6-2.2,1.6-3.5c0-1.6-0.5-2.9-1.6-3.9
	c-1.1-1-2.4-1.5-3.9-1.5h-26.1v-21.9h31c1.5,0,2.8-0.5,3.9-1.5c1.1-1,1.6-2.2,1.6-3.6c0-1.5-0.5-2.8-1.6-3.8
	C267.4,93.3,266.1,92.8,264.5,92.8z"/>
<path class="st0" d="M321.6,103.2c1.6,0,2.9-0.5,4-1.4c1-0.9,1.6-2.2,1.6-3.7s-0.5-2.8-1.6-3.8c-1.1-1-2.4-1.5-4-1.5h-37.5
	c-1.6,0-2.9,0.5-4,1.6c-1.1,1.1-1.6,2.4-1.6,4v65c0,1.6,0.5,2.9,1.6,4c1,1,2.4,1.6,4,1.6h37.5c1.6,0,2.9-0.5,4-1.5
	c1-1,1.6-2.2,1.6-3.8c0-1.4-0.5-2.6-1.6-3.6c-1.1-1-2.4-1.6-4-1.6H290v-23.3h26.7c1.6,0,2.9-0.5,4-1.4c1-0.9,1.6-2.2,1.6-3.7
	c0-1.6-0.5-2.9-1.6-3.9c-1.1-1-2.4-1.5-4-1.5H290v-21.4H321.6z"/>
<path class="st0" d="M396.3,159.9c-0.9-0.5-1.6-1.2-2-2.2c-0.4-0.9-0.6-2.2-0.8-3.6c-0.2-1.5-0.4-3.3-0.6-5.6
	c-0.1-2.5-0.6-4.7-1.6-6.7c-1-2-2.3-3.7-4-5.2c-1-0.9-2.3-1.4-3.4-2.1c2-1,3.8-2.3,5.4-4c2-2,3.5-4.3,4.7-7c1.2-2.6,1.7-5.4,1.7-8.3
	c0-4.4-1-8.3-3-11.7c-2-3.4-4.6-6-7.9-7.9c-3.3-1.9-6.8-2.9-10.8-2.9h-30.7c-1.6,0-2.9,0.5-4,1.6c-1.1,1.1-1.6,2.4-1.6,4v65
	c0,1.6,0.7,2.9,2,4c1.3,1,2.8,1.6,4.6,1.6c1.5,0,2.7-0.5,3.6-1.6c0.9-1.1,1.3-2.4,1.3-4v-23.7h21.5c1.7,0,3.2,0.2,4.6,0.5
	c1.4,0.4,2.6,1,3.6,1.8c1,0.9,1.8,1.9,2.4,3.2c0.6,1.3,0.9,2.8,0.9,4.6c0,3.9,0.4,7.1,1.1,9.5c0.7,2.4,1.7,4.3,2.8,5.6
	c1.2,1.3,2.4,2.4,3.6,3.1c0.7,0.4,1.5,0.6,2.5,0.8c1,0.2,2,0.1,3-0.1c1-0.3,1.8-0.8,2.5-1.7c0.9-1.2,1.3-2.5,0.9-3.9
	C398.4,161.7,397.6,160.6,396.3,159.9z M378.7,128.1c-1.5,1.2-3.1,1.9-4.8,2h-24.6v-26.9h24.2c2.8,0,5.3,1.2,7.3,3.5
	c2.1,2.4,3.1,5.3,3.1,8.8c0,2.8-0.5,5.2-1.5,7.4C381.4,125.2,380.2,126.9,378.7,128.1z"/>
<path class="st0" d="M416.4,92.8c-1.7,0-3.2,0.5-4.2,1.6c-1.1,1.1-1.6,2.4-1.6,4v65c0,1.6,0.5,2.9,1.5,4c1,1,2.4,1.6,4.1,1.6
	c1.5,0,2.8-0.5,4-1.6c1.1-1.1,1.7-2.4,1.8-4v-65c0-1.6-0.6-2.9-1.7-4C419.1,93.3,417.8,92.8,416.4,92.8z"/>
<path class="st0" d="M498.6,94.3c-0.9-1-2.1-1.5-3.5-1.5c-1.5,0-2.7,0.5-3.6,1.5c-0.9,1-1.4,2.2-1.4,3.6v51.5l-42-54.6
	c-0.4-0.7-1.1-1.1-2-1.5c-0.9-0.3-1.8-0.5-2.6-0.5c-1.6,0-2.9,0.5-4,1.6c-1.1,1.1-1.6,2.4-1.6,4v65.6c0,1.4,0.5,2.6,1.4,3.5
	s2.1,1.5,3.6,1.5c1.5,0,2.6-0.5,3.6-1.5s1.4-2.2,1.4-3.5v-51.2l42.2,54.6c0.4,0.5,1,0.9,1.8,1.2c0.8,0.3,1.6,0.4,2.4,0.4
	c1.6,0,2.9-0.5,4-1.6c1-1.1,1.6-2.4,1.6-4V97.9C500,96.5,499.5,95.2,498.6,94.3z"/>
</svg>
