<?xml version="1.0" encoding="utf-8"?>
<!-- Generator: Adobe Illustrator 25.4.1, SVG Export Plug-In . SVG Version: 6.00 Build 0)  -->
<svg version="1.1" id="Ebene_1" xmlns="http://www.w3.org/2000/svg" xmlns:xlink="http://www.w3.org/1999/xlink" x="0px" y="0px"
	 viewBox="0 0 459.5 248.1" style="enable-background:new 0 0 459.5 248.1;" xml:space="preserve">
<style type="text/css">
	.st0{fill:#E5BA9C;}
	.st1{fill:#FFE6D5;}
	.st2{fill:none;stroke:#48333B;stroke-width:0.686;stroke-linecap:round;stroke-linejoin:round;stroke-miterlimit:10;}
	.st3{fill:#5B4850;}
	.st4{fill:#D49F6C;}
	.st5{fill:#B98144;}
	.st6{fill:#48333B;}
	.st7{fill:#D49F6B;}
	.st8{fill:#A86F38;}
	.st9{fill:#D39C68;}
	.st10{fill:#EBBFB3;}
	.st11{fill:#FCF8F0;}
	.st12{fill:none;stroke:#FFE6D5;stroke-width:0.4056;stroke-linecap:round;stroke-linejoin:round;stroke-miterlimit:10;}
	.st13{fill:none;stroke:#FCF8F0;stroke-width:0.4056;stroke-linecap:round;stroke-linejoin:round;stroke-miterlimit:10;}
	.st14{fill:none;stroke:#B98144;stroke-width:0.5017;stroke-miterlimit:10;}
</style>
<g>
	<g>
		<path class="st0" d="M301,210.6c-0.2,0-0.4,0-0.6-0.1c-0.4-0.1-0.7-0.5-0.9-1c-0.2-0.6-0.1-1.2-0.2-1.8c0-0.4,0-0.9,0-1.3
			c0-1.4,0.1-2.7,0.1-4.1c0-1.2,0.3-2.7,1.5-2.9c0.3,0,0.6,0,0.9,0c0.8-0.1,1.2-1,1.6-1.7c3.8-7.3,10.3-7.1,9.7-13.1
			c-0.3-3.5-0.5-7.1-0.6-10.6c0-2,0-4,0.6-5.8c0.6-1.9,3.1-5.4,4.9-6.3l9.5,8.4c-1.7,6.7-3.3,13.4-5.5,19.9
			c-0.3,0.9-0.7,1.9-1.2,2.7c-0.9,1.4-2.3,2.3-3.7,3.2c-2.6,1.7-5.2,3.4-7.9,4.9c-1.5,0.8-3.1,1.6-4.4,2.8c-0.7,0.6-1.3,1.5-1.5,2.4
			c0,0.1,0,0.2,0,0.2c0,0.1,0.1,0.1,0.2,0.1c0.5,0.2,0.8,0.7,1,1.1c0.2,0.5,0.3,1,0.4,1.5c0,0.5,0,1-0.4,1.3
			c-0.2,0.1-0.5,0.2-0.8,0.2C302.9,210.6,302,210.6,301,210.6C301,210.6,301,210.6,301,210.6z"/>
		<path class="st0" d="M360.7,166.3c1.2,0.3,1.9,1.5,2.2,2.8c0.7,3.4-0.7,6.9-1.9,10.2c-0.8,2.4-1.5,4.8-2.1,7.2
			c-0.3,1.5,0.7,18.7,1.1,20.2c0.1,0.5,0.2,1.1,0.6,1.4c0.5,0.5,1.2,0.6,1.7,1c0.6,0.4,0.9,1.3,0.3,1.6c-0.2,0.1-0.3,0.1-0.5,0.1
			c-0.9,0.1-1.7,0.1-2.6,0.2c-0.3,0-0.5,0-0.8,0c-0.5-0.2-0.7-0.7-0.9-1.1c-3.3-7.2-3.1-14.4-4.8-22.1c-0.2-0.9-0.3-2,0.3-2.6
			c0.2-0.2,0.4-0.3,0.5-0.5c0.4-0.5,0.3-1.1,0.3-1.7c-0.2-4.3,1.7-8.3,2.9-12.5c0.3-1,0.6-2,1.2-2.9
			C358.6,166.7,359.7,166.1,360.7,166.3z"/>
		<path class="st0" d="M367.7,132.4c0.6,0.6,1.8,1.6,2.7,1.3c0.7-0.2,1-0.7,1.4-1.3c0.4-0.6,1.1-1.9,1.1-1.9
			c0.5-0.1,0.9,0.3,1.2,0.7c0.3,0.4,0.6,0.8,0.9,1.2c0.1-3.1-4-5.4-4.4-5.4c-0.6,0-1,0.5-1.4,0.9c-0.7,0.9-1.4,1.9-1.9,3
			c-0.1,0.2-0.2,0.4-0.2,0.6C367.2,131.7,367.4,132.1,367.7,132.4z"/>
		<path class="st1" d="M312.6,174.2c3.7,1.4,7.5,2.3,11.4,2.9c1.9,0.3,3.8,0.5,5.7,0.6c2,0.1,4.1,0.2,6.1,0.5c3.6,0.5,17,7.9,24-0.2
			c0.4-0.4,12-25.9,12-25.9c0.9-1.7,2.1-3.5,4.1-3.9c1.6-0.3,3.4,0.3,4.9-0.4c1.3-0.6,1.9-1.8,2.2-3.1c0.1-0.7,0.2-1.3,0.2-2
			c0-0.4-1.2-0.6-1.5-0.7c-1.6-0.4-3.3-1.1-4.6-2.2c-2.8-2.4-2.3-8-11.1-8.7c-1.4-0.1-3-0.6-5.3,1.7c-1.3,1.2-2.6,2.5-3.6,4
			c-2.1,2.9-5,10.5-5,10.5c-0.9,1.3-2.4,1.6-3.8,3.4c-1.1,1.3-1.9,3.1-3.4,4c-3.8,2.6-25.5,0.8-34.4,2c-2.6,0.3-4.8,1.6-5.5,4.2
			C302.9,167.7,306,171.6,312.6,174.2z"/>
		<path class="st2" d="M381.3,145.9c0,0-5.7,0-8.4-1.6"/>
		<path class="st3" d="M371.9,139.5c0,0.6,0.4,1,0.9,1c0.5,0,0.9-0.5,0.9-1c0-0.6-0.4-1-0.9-1C372.3,138.5,371.9,138.9,371.9,139.5z
			"/>
		<path class="st2" d="M382.6,142.3c0,0-2.8-0.5-2.3,0.7c0.4,1.2,2.6,1.5,2.2,2.3"/>
		<path class="st1" d="M366.4,134.1c0,0,1.7,0.2,1.1-0.8c-0.6-1-1.4-5.4-3.4-5.5c-2-0.1-6.5,1.8-6,2.5c0.5,0.6,2.5-0.1,2.4,0.8
			c-0.1,0.9,0.2,3.3,0.2,3.3L366.4,134.1z"/>
		<path class="st2" d="M368.3,134.6c-1-1.9-1.9-3.8-2.9-5.7c-0.2-0.3-0.3-0.6-0.6-0.8c-0.3-0.2-0.7-0.3-1.1-0.3
			c-1.4,0-2.7,0.6-3.9,1.2c-0.5,0.2-0.9,0.5-1.4,0.7c-0.1,0.1-0.3,0.2-0.3,0.4c0,0.1,0.1,0.2,0.2,0.3c0.5,0.3,1.1,0.4,1.6,0.4
			c1.2,0,2.4-0.2,3.5-0.5"/>
		<path class="st2" d="M360.6,130.7c-0.1,1.5,0,3.1,0.3,4.6"/>
		<path class="st2" d="M366.1,134.6c0,0-1-2.3-1.1-2.4"/>
		<path class="st1" d="M303.7,155.7c-0.3,0-0.7,0-1,0.2c-0.1,0.1-0.2,0.2-0.3,0.4c-0.4,0.8-0.1,1.9,0.5,2.6s1.5,1.2,2.3,1.6
			c0.6,0.3,1.2,0.6,1.8,0.5l2.9-2.4C308.1,157.3,306,155.9,303.7,155.7z"/>
		<path class="st1" d="M353.4,168.4c1.2,0.3,1.9,1.5,2.2,2.8c0.7,3.4-0.7,6.9-1.9,10.2c-0.8,2.4-1.5,4.8-2.1,7.2
			c-0.3,1.5,0.7,18.7,1.1,20.2c0.1,0.5,0.2,1.1,0.6,1.4c0.5,0.5,1.2,0.6,1.7,1c0.6,0.4,0.9,1.3,0.3,1.6c-0.2,0.1-0.3,0.1-0.5,0.1
			c-0.9,0.1-1.7,0.1-2.6,0.2c-0.3,0-0.5,0-0.8,0c-0.5-0.2-0.7-0.7-0.9-1.1c-3.3-7.2-3.1-14.4-4.8-22.1c-0.2-0.9-0.3-2,0.3-2.6
			c0.2-0.2,0.4-0.3,0.5-0.5c0.4-0.5,0.3-1.1,0.3-1.7c-0.2-4.3,1.7-8.3,2.9-12.5c0.3-1,0.6-2,1.2-2.9
			C351.3,168.8,352.3,168.2,353.4,168.4z"/>
		<path class="st2" d="M344.2,171.2c0,0,2.9,3.5,2.6,8.7"/>
		<path class="st1" d="M290,211c-0.2,0-0.4,0-0.6-0.1c-0.4-0.1-0.7-0.5-0.9-1c-0.2-0.6-0.1-1.2-0.2-1.8c0-0.4,0-0.9,0-1.3
			c0-1.4,0.1-2.7,0.1-4.1c0-1.2,0.3-2.7,1.5-2.9c0.3,0,0.6,0,0.9,0c0.8-0.1,1.2-1,1.6-1.7c3.8-7.3,10.3-7.1,9.7-13.1
			c-0.3-3.5-0.5-7.1-0.6-10.6c0-2,0-4,0.6-5.8c0.6-1.9,3.1-5.4,4.9-6.3l9.5,8.4c-1.7,6.7-3.3,13.4-5.5,19.9
			c-0.3,0.9-0.7,1.9-1.2,2.7c-0.9,1.4-2.3,2.3-3.7,3.2c-2.6,1.7-5.2,3.4-7.9,4.9c-1.5,0.8-3.1,1.6-4.4,2.8c-0.7,0.6-1.3,1.5-1.5,2.4
			c0,0.1,0,0.2,0,0.2c0,0.1,0.1,0.1,0.2,0.1c0.5,0.2,0.8,0.7,1,1.1c0.2,0.5,0.3,1,0.4,1.5c0,0.5,0,1-0.4,1.3
			c-0.2,0.1-0.5,0.2-0.8,0.2C291.9,211,291,211,290,211C290,211,290,211,290,211z"/>
		<path class="st2" d="M321.8,172.3c0,0-4.4,0.2-6,2.6"/>
		<path class="st4" d="M370.7,154.8c-7.5-1.9-11.6-4.6-18.3-9.6l-1.1,2.3c4.1,6.3,11.2,8.4,18.4,10.7L370.7,154.8z"/>
	</g>
	<path class="st2" d="M187.8,220.4c-3.3-11.4-14.3-20.1-26.2-20.8c-4.8-0.3-9.5,0.6-14.3,0.5c-10.5-0.3-20.7-6.1-26.4-14.9
		c-1.8-2.8-3.2-5.9-3.8-9.1c-4.9-23.7,14.4-32.1,19-38.8c2.2-3.2,3.4-7.2,2.5-10.9"/>
	<path class="st2" d="M415.4,187.2c-9.2-12.5-22.1-24.4-37.7-24.7c-16.9-0.3-30.5,12.7-44.6,22.1c-11.1,7.4-23.5,12.9-36.5,16.1
		c-11.4,2.8-24.5,3.5-33.7-3.8c-10.4-8.3-12-23.6-20.3-34c-10-12.4-29.3-15.3-43.2-7.6c-6.4,3.5-11.7,8.9-18.4,11.6
		c-11.5,4.7-25.3,0.5-34-8.4c-8.6-8.9-12.5-21.6-12.5-34"/>
	<g>
		<path class="st5" d="M397.4,211.5c0,0,9.5,17,16.5,21.1c6.9,4.1,12.3,14.1,17.9,15c5.6,1,6.7-2.3,6.7-2.3s-4.1-3.4-5.4-4.6
			c-12.9-11.7-18.4-30.9-25-33.1L397.4,211.5z"/>
		<g>
			<path class="st4" d="M351.3,185c0,0-17.1,22.5-41.2,17.1c-24.8-5.6-15-18.3-15-18.3c-6.6,2.2-11.2,11.3,1.1,19.5
				c-7.9,10.3,8.2,14.3,10.4,13.9c-6.8,2.8-0.3,5.7,7.2,4.7c0.8,10.2,23.1,1.9,23.2,1.6c0.2-0.5,9.1-22,9.1-22L351.3,185z"/>
			<path class="st5" d="M313.9,222c-0.3,0-0.5,0.1-0.8,0.1c7.7-3.1,18.9-9.2,17.1-21.5c13-4.9,21.2-15.6,21.2-15.6l-5.1,16.7
				c0,0-8.9,21.4-9.1,22C337,223.9,314.7,232.2,313.9,222z"/>
		</g>
		<path class="st5" d="M383.6,202.1c0,0-14.5,1.4-13.1,7.9c2,9,4.7,16.4-0.5,19.6c-5.2,3.3-18.1,5.8-18.2,8.9c-0.1,3,4,7.8,1.9,9.1
			c-4.8,2.9-12-10.4-5.7-13.9c17-9.5-6.1-15.5,1.4-29.6c2.6-4.9,10.9-14.7,10.9-14.7L383.6,202.1z"/>
		<path class="st5" d="M407.8,155.7c5-0.5-6.4-8.8,0-10.6c1.8-0.5,4.2,0.5,5.3,2.1c2.7,3.9-0.1,20,13.9,21.9
			c-0.7,0.6-1.5,1.2-2.5,1.5c-1.5,0.4-3.2,0.1-4.7-0.2c-1.9-0.4-3.9-0.7-5.7-1.5c-1.7-0.7-3.3-1.6-4.7-2.7c-1.4-1.1-2.5-2.3-3.7-3.6
			c-1.3-1.3-2.7-2.6-3.4-4.3C399.1,151.1,407.5,155.7,407.8,155.7z"/>
		<path class="st4" d="M459.5,180.4c0,0-12.4-0.7-14.7-4.7c-2.2-4-3.3-7.3-12.6-8.2c-9.3-0.9-10.8,6.3-12.7,9
			c-1.9,2.7-5.8,3.8-9.4,6c-3.6,2.2-7.1,7.6-15.2,4.2c-10.9-4.6-36.8-11.8-45.4-2.6c-14.5,15.5-11.9,34.8-14.9,35.7
			c-3.1,0.9-9.9,0.8-12.8,4.4c-4.1,5.1-6.9,14-9.4,14.4c-2.5,0.4-5.6,3-4.4,5c1.2,2,4.6,2.8,7.9-1.1c3.3-3.8,11.3-14,15-14.2
			c9.3-0.6,12.6-3.1,18.5-10.5c5.9-7.4,15.9-19.4,22.3-15c6.4,4.3,13.1,16.4,28.9,19.1c9.7,1.7,19-3.4,25.4-12.6
			c6.4-9.1,7.1-15.9,13.6-16.6c6.5-0.7,16.5-1.6,18.5-5.3C459.9,183.5,459.5,180.4,459.5,180.4z"/>
		<path class="st5" d="M414.7,180.3c-0.1,0-0.1-0.1-0.2-0.1c2-1,3.8-2.1,4.9-3.6c0.3-0.4,0.5-0.9,0.8-1.4l5.3,1.6
			C425.3,176.8,417.9,182.7,414.7,180.3z"/>
		<path class="st4" d="M399.4,155.5c12.6,0.2,15.5,17.7,27,13.9c0,0,0,0.1,0,0.1c0.3,1.5,1.8,2.9,1.6,5.5c-0.5,4.4-6.9,6.1-8.5,4
			c-0.7-1-0.1-2.4,0.2-3.4c0.3-1,0.5-2.2,0-3.1c-0.5-0.8-1.4-1.5-2.4-1.3c-2.1,0.4-7.2,11-10.9,5.3c-1.7-2.6,2.3-5.9,0.3-8.5
			c-3-3.9-7.8,2.5-12.7-1.6C389.6,162.9,391.7,155.3,399.4,155.5z"/>
		<path class="st5" d="M409.1,207.2c0.5,3.8,1.4,9.4,2.6,13.5c-3.6,1.3-7.4,1.7-11.3,1.1c-1.9-0.3-3.6-0.8-5.3-1.3
			c-1.6-4.9-2.9-9-3.7-11.8L409.1,207.2z"/>
		<path class="st4" d="M410.1,205.6c0,0,4.2,16.5,9,18.9c4.8,2.4,13,5.3,15.1,8.5c2.2,3.2,9.5,10.6,6.6,11.8
			c-7.3,2.9-8.7-9.8-14.4-10.4c-5.7-0.6-23-1.8-28.8-11.5c-5.8-9.7-9.7-16.9-9.7-16.9L410.1,205.6z"/>
		<path class="st5" d="M437.7,193c-4.2,1.5-5.6,6.3-9.5,12.8c-0.8-1.9-1.1-4.3-0.2-7.2C430.4,191.1,435.7,192.2,437.7,193z"/>
		<path class="st5" d="M413.8,180.6c0.3-0.2,0.6-0.3,0.6-0.3c-1.9,1.7-2.5,3.3,11.4,16.5c4,3.8,5.9,2.4,6.4,1.8
			c-0.8,1.4-1.6,3-2.6,4.7c-2.3,0.7-10.4-4.1-16.2-12.8c-3.4-5.1-3.8-7.1-3.4-7.9c0,0,0.1-0.1,0.1-0.1
			C411.3,181.8,412.6,181.2,413.8,180.6z"/>
		<path class="st6" d="M410.3,182.3c0.8-0.5,4.1-2,4.1-2c-1.9,1.7-2.5,3.4,11.8,15.8c5,4.3,6.7,1.3,6.7,1.3s-1.1,2.5-2.3,4.6
			c-1.1,2-10.5-2.5-17.1-11.6C409.2,184.4,409.5,182.8,410.3,182.3z"/>
		<path class="st7" d="M429.5,207.3c0.9,1.8,2.4,2.9,3.3,2.5c0.9-0.5,1-2.3,0.1-4.1c-0.9-1.8-2.4-2.9-3.3-2.5
			C428.7,203.6,428.6,205.5,429.5,207.3z"/>
		<path class="st7" d="M428.8,202.5c0,0.4,0.4,0.8,0.9,0.7c0.4,0,0.8-0.4,0.7-0.9c0-0.4-0.4-0.8-0.9-0.7
			C429.1,201.7,428.8,202.1,428.8,202.5z M429.2,202.5c0-0.2,0.2-0.4,0.4-0.4c0.2,0,0.4,0.2,0.4,0.4c0,0.2-0.2,0.4-0.4,0.4
			C429.4,202.9,429.2,202.7,429.2,202.5z"/>
		<path class="st6" d="M440.5,177.5c0.1,0.8-0.2,1.5-0.7,1.5c-0.5,0.1-1-0.5-1.1-1.3c-0.1-0.8,0.2-1.5,0.7-1.5
			S440.4,176.8,440.5,177.5z"/>
		<path class="st6" d="M439.1,172.8c-1.2,0-2.7,0.6-2.8,1.7c0,0.4,0.3,0.6,0.7,0.7c1,0.1,2.2-0.5,2.7-1.4
			C440,173.4,439.6,172.8,439.1,172.8z"/>
		<path class="st2" d="M439.6,184.1c0,0,1.1,3.9,16.6,3.6"/>
		<path class="st2" d="M459,180.5c-0.9-0.1-1.9,0-2.7,0.5c-0.5,0.3-1,0.9-0.9,1.5c0.1,0.4,0.4,0.6,0.8,0.8c0.3,0.2,0.7,0.3,1,0.6
			c0.3,0.3,0.5,0.7,0.5,1.1c0,0.2-0.1,0.4,0,0.7c0,0.2,0.3,0.4,0.5,0.4"/>
	</g>
	<g>
		<path class="st4" d="M101.7,127.9c-0.1-1,0.3-5.4,1.8-5.5c0.3,0,0.6,0.2,0.7,0.4c0.2,0.2,0.2,0.5,0.4,0.8c0.5,1.1,1.4,2,2,3
			c0.7,1.3,1.6,2.5,2.5,3.6c1.3,1.7,2.8,3.2,3.5,5.2c0.8,2,0.8,4.3-0.1,6.3c-0.2,0.6-0.6,1.1-1.2,1.2c-0.5,0.1-1-0.3-1.3-0.8
			c-0.2-0.5-0.3-1-0.3-1.6c0-1.5,0.2-3.1-0.1-4.5c-0.1-0.5-0.3-1-0.8-1.3c-0.4-0.3-1.1-0.3-1.4,0.1c-0.2,0.3-0.2,0.6-0.2,0.9
			c0.1,1,0.4,2,0.9,2.9c0.2,0.4,0.4,0.7,0.5,1.1c0.1,0.4,0,0.9-0.3,1.1c-0.6,0.5-1.5-0.1-2-0.6c-2.2-2.3-3.7-5.2-4.3-8.3
			C101.9,130.8,101.8,129.4,101.7,127.9z"/>
		<path class="st4" d="M101.7,127.9c-0.1-1,0.3-5.4,1.8-5.5c0.3,0,0.6,0.2,0.7,0.4c0.2,0.2,0.2,0.5,0.4,0.8c0.5,1.1,1.4,2,2,3
			c0.6,1,1.2,1.9,1.9,2.8c-0.2,0.5-0.3,1.1-0.5,1.6c-0.2,0.7-0.3,1.5-0.2,2.2c0.1,0.5,0.2,0.9,0.3,1.3c-0.2,0-0.4,0.1-0.6,0.3
			c-0.2,0.3-0.2,0.6-0.2,0.9c0.1,1,0.4,2,0.9,2.9c0.2,0.4,0.4,0.7,0.5,1.1c0.1,0.4,0,0.9-0.3,1.1c-0.6,0.5-1.5-0.1-2-0.6
			c-2.2-2.3-3.7-5.2-4.3-8.3C101.9,130.8,101.8,129.4,101.7,127.9z"/>
		<path class="st8" d="M88.4,69.9c0,0,5.4-1.7,6.8,2.7c1.4,4.4,7.6,39.4,9.5,45.5c1.9,6.2,2.5,8.9,2.5,8.9l-7.9,2.5
			C99.3,129.6,81.9,82.1,88.4,69.9z"/>
		<path class="st8" d="M82.6,42.5c0,0,9.9-1.5,10.7,9.4c0.9,10.9,4.1,30.8,4.1,30.8l-4.9,0.1L82.6,42.5z"/>
		<g>
			<path class="st9" d="M43.9,44.1c0.2,0.8,0.9,1.8,1.8,1.6c5.1-1.2,0.7,0.4,2.7,3.6c1.9,3,9.9,5.9,15,1C68,46,63.7,42.9,65,40.1
				c1.4-3.1,8.1,0.4,10.6-7.2c0.9-2.9,0.2-6.1-1.9-8.4c-1-1-2.1-1.8-3.1-2.7c-3.5-2.9-1.9-0.8-2.8,0.5c-2.1,3-19.2-1.4-15.9,9.8
				c0.4,1.5,1.8,2.7,1.9,4.3c0.4,7-8.3,4.4-9.1,5.1C43.9,42.1,43.7,43.2,43.9,44.1z"/>
			<ellipse transform="matrix(0.9295 -0.3688 0.3688 0.9295 -0.7936 29.9398)" class="st10" cx="77.9" cy="17" rx="9.1" ry="11.9"/>
			<path class="st10" d="M68.4,47.7v-8.6h-0.6c3-6.5,3.9-22.5,3.9-22.5l6.3,3.9c0,0-0.4,20.1,2.2,21.9c2.6,1.8-1.2,3.7-5.1,6.6
				c-2,1.5-5.4,0.4-7.8-1.4H68.4z"/>
			<path class="st9" d="M69,25.1c0.1,0.1,0.3,0.1,0.4,0.1c0.5-0.3,10.6-7.7,12.9-13.2c4.3-10.4-8.8-13.3-13.8-8.3
				C64,8.1,62.6,18.4,69,25.1z"/>
			<g>
				<path class="st6" d="M85.6,19.6c-0.1,0.5,0.2,1,0.5,1c0.3,0,0.6-0.4,0.7-0.9c0.1-0.5-0.2-1-0.5-1C85.9,18.6,85.6,19,85.6,19.6z"
					/>
				<path class="st1" d="M85.7,17.2c-0.1,1.1,1.6,0.4,1.7,0.1C87.4,16.6,85.7,16.7,85.7,17.2z"/>
				<g>
					<path class="st6" d="M82,19.3c-0.1,0.6-0.4,1-0.8,1c-0.4,0-0.6-0.5-0.6-1.1c0.1-0.6,0.4-1,0.8-1C81.7,18.3,82,18.8,82,19.3z"/>
					<path class="st1" d="M82.2,17c-0.1,1.1-2.2,0.1-2.2-0.2C80.1,16.1,82.2,16.5,82.2,17z"/>
				</g>
				<g>
					<path class="st6" d="M83,24.5C83.1,24.5,83.1,24.5,83,24.5c1.3-0.5,1.1-1.4,0.8-2.5c-0.3-1.2-0.7-2.8,0.8-4.5
						c0.1-0.1,0.1-0.2,0-0.2c-0.1-0.1-0.2-0.1-0.2,0c-1.6,1.9-1.2,3.6-0.8,4.8c0.3,1.2,0.4,1.7-0.5,2.1c-0.1,0-0.1,0.1-0.1,0.2
						C82.9,24.5,83,24.5,83,24.5z"/>
				</g>
				<g>
					<path class="st6" d="M82.1,26c0.8,0.1,1.4,0,1.4,0c0.1,0,0.2-0.1,0.1-0.2c0-0.1-0.1-0.1-0.2-0.1c0,0-2.5,0.4-3.4-1
						c-0.1-0.1-0.2-0.1-0.2,0c-0.1,0.1-0.1,0.2,0,0.2C80.3,25.7,81.3,26,82.1,26z"/>
				</g>
			</g>
			<path class="st0" d="M82.6,5.3c4.6,1.4,4.8,7.7,4.7,10.2C79,15,76.8,3.6,82.6,5.3z"/>
			<path class="st3" d="M68.2,15c-0.8-1.3-2.7-0.4-4.2,0.6c-0.7-4.2-0.1-10,6.1-14.3C76.3-3,83.1,5,83.1,5L68,20.3l-2.3,0.6
				c0,0-0.2-0.4-0.5-1.1C66.7,18.7,69.2,16.5,68.2,15z"/>
			<path class="st6" d="M87.1,15.8c0,0,11.9-6.6,6.7-10.5C88.5,1.4,81.1,2.9,75.2,10C69.4,17.2,68,20.3,68,20.3S78.9,12,82.7,13
				C86.5,14,87.1,15.8,87.1,15.8z"/>
		</g>
		<g>
			<g>
				<polygon class="st4" points="25.7,204.2 26.8,206.7 15.6,214.2 7.1,213.8 8.4,210.8 19.5,199.9 				"/>
				<path class="st8" d="M0,208.8c1.7-2.5,7.3-2.7,10-3.1c2.8-0.3,4.7-2.8,4.7-2.8s3.7,3.9-0.9,7.5c-2,1.5,7.4-1.3,6.4,1.7
					c-1,3-8.2,5.3-7.4,15.5c0.4,5.2,1.6,10.1-0.7,10.9C9.3,239.6,9.9,238.7,0,208.8z"/>
				<path class="st6" d="M59.4,115.8c0,0-5.8,51.4-11.5,54.4c-5.6,3-32.1,30-32.1,30l13.3,16.7c0,0,21.6-15.2,38.3-28.3
					C85.3,174.5,80.4,137,80.4,137L59.4,115.8z"/>
			</g>
			<g>
				<polygon class="st4" points="112.2,221.8 114.9,221.6 118.5,234.6 115.5,242.5 113,240.3 106.1,226.4 				"/>
				<path class="st7" d="M108.6,247.7c-1.8-2.3-0.3-7.8,0.2-10.4c0.5-2.7-1.1-5.4-1.1-5.4s4.8-2.3,6.9,3.3c0.9,2.3,1.1-7.4,3.6-5.5
					c2.6,1.9,2.5,9.4,12.5,11.9c5,1.2,10.1,1.6,10.1,4.1C140.7,248.5,140,247.6,108.6,247.7z"/>
				<path class="st3" d="M92.8,113.2c0,0,11.3,50.5,11.3,57.2c0,6.8,12.3,56.4,12.3,56.4l-18,5.7c0,0-17.6-36-20.4-59.8
					c-2.8-23.8-23.3-48.2-17.8-59.3C65.6,102.3,92.8,113.2,92.8,113.2z"/>
			</g>
			<path class="st3" d="M91.7,86.4c0,0-1.3,14.7,1.1,26.8c2,10,1.2,13.3,1.4,13.3s-34.3-3.9-34.3-3.9s-4-11,0.5-22.2
				c4.6-11.2,3-18.6,3-18.6L91.7,86.4z"/>
		</g>
		<path class="st1" d="M78.5,36.7c0,0,3.4,4.3,4.5,7.9c1.1,3.6,9.1,17.2,9.7,24.7c0.6,7.5-0.5,19.2-0.5,19.2L82.7,88L73,47.7
			c0,0,3.7-2.3,5.2-3.8c0.9-0.9,0.8-2.7,0.7-4.5C78.7,38.1,78.5,36.7,78.5,36.7z"/>
		<path class="st8" d="M83.4,41.3c1.2,1.7,5.9,8.3,9.5,19.6c2.7,8.2,2.5,23.1,2,34.2h-4.2c0.3-5,0.6-11,0.7-17.4
			C91.9,60.4,81,46,81,46s0.8-3.6-1.1-6.3c-0.7-1-1.1-1.9-1.3-2.8c-0.1-0.9-0.2-1.9-0.3-2.9C78.5,34.2,84.4,37.3,83.4,41.3z"/>
		<path class="st8" d="M80.3,94.3c-3.7-0.2-7.3-1.1-10.7-2.5c-3.3-1.3-6.5-3.1-9.1-5.6c-2.7-2.6-4.7-5.9-6.1-9.4
			c-4.9-12.4,0.9-35.1,7.1-35.6c5.4-0.5,5.4-7.9,5.4-7.9s11,2.7,10.7,7.5c-0.3,4.9,1.5,6.4,3.6,11.2c2.1,4.9,7.4,20,7.4,30.2
			c0,3.2-0.2,7-0.4,10.8C85.7,94.2,83,94.4,80.3,94.3z"/>
		<path class="st1" d="M76.7,93.8c-6.9,0-9-0.5-14.2-2.6L60.2,99c0,0,14.7,2.3,17.9,0.8C81.2,98.3,76.7,93.8,76.7,93.8z"/>
		<g>
			<path class="st8" d="M115.8,108.8c-1,2.3-1.2,4.5-0.5,4.8c0.7,0.3,2.1-1.4,3.1-3.7c1-2.3,1.2-4.5,0.5-4.8
				C118.1,104.7,116.8,106.4,115.8,108.8z"/>
			<g>
				<path class="st10" d="M114.3,103.6c0,0,8.7,5,10.1,5.1c1.4,0.1,6.4-1.4,9.2,0c2.8,1.5,5.5,4.2,5,5c-0.5,0.8-1.7-0.5-4-0.7
					c-2.2-0.2-4.6,1.4-6.7-0.3c-2.1-1.7-13.3-5.6-13.3-5.6L114.3,103.6z"/>
				<path class="st8" d="M140.5,125.3c3.6-6.6-1.3-13.5-3.7-16.6c-3.1-4.1-4.4,0.5-10.9,10.9C121.7,126.3,137.7,130.5,140.5,125.3z
					 M129.2,122.1c2.7-2.6,6.2-6.9,7.1-10.4c1.3,1.7,5,7.4,2.1,10.7C135.6,125.8,130.6,123,129.2,122.1z"/>
				<path class="st10" d="M129.6,112.8c0,0,1.9,1,4,1c2,0,2.6-1.2,2.6-1.2c1.1,0.7,1.2,5.6-1.6,7.7c-2.8,2.2-7.2,1.5-10.3-2.8
					c-3.1-4.2-6.1-6.3-8.6-6.7c-2.5-0.4-0.5-4.6-0.5-4.6L129.6,112.8z"/>
			</g>
			<path class="st5" d="M114.5,107.2l-0.2-3.6c0,0,4,2.3,7,3.8c0,0-0.1,0.1-0.1,0.1c-1.3,1.3-2.3,2.8-3,4.4c-0.9-0.5-1.8-0.8-2.7-1
				c-1.8-0.3-1.3-2.4-0.9-3.7C114.6,107.2,114.5,107.2,114.5,107.2z"/>
			<path class="st7" d="M62.2,45.9c11.6-3.7,19.7,25.8,23.6,36.2c3.9,10.3,33.1,22.9,33.1,22.9c-0.7-0.3-2.1,1.4-3.1,3.7
				c-1,2.3-1.2,4.5-0.5,4.8c0,0-36.3-6.4-42.7-15.7C66.2,88.5,50.6,49.7,62.2,45.9z"/>
		</g>
		<path class="st0" d="M66.6,95.3c0.1-0.9,0-1.8-0.4-2.7c-0.1-0.2-0.3-0.5-0.6-0.5c-0.2,0-0.3,0.1-0.5,0.2c-0.4,0.4-0.7,1-1.1,1.4
			c-0.4,0.5-1,0.8-1.6,0.7c-0.7-0.2-1.1-1-1.8-1c-2.4,0-0.3,3.9,0.1,4.7c0.2,0.3,0.3,0.6,0.3,1c0.1,2.7-3.5,4.3-4.6,6.4
			c-0.8,1.6-0.9,3.4-0.6,5.2c0.2,1.1,0.5,2.2,1.1,3.1c1,1.4,2.7,2.3,4.4,2.4c1.7,0.2,3.4-0.3,5-1c1.1-0.5,2.1-1.1,2.8-2
			c1.4-1.6,1.9-4,1.6-6.1c-0.3-2.2-1.3-4.1-2.6-5.9c-0.9-1.3-1.9-2.6-1.9-4.1C66.4,96.5,66.6,95.9,66.6,95.3z"/>
		<path class="st2" d="M68.3,97.4c0,0-5.8,1.8-8.1,0.1"/>
		<path class="st2" d="M67.4,96.7c0,0-5.8,1.1-7.3,0.1"/>
	</g>
	<g>
		<path class="st5" d="M318.5,181.1c8.4,3.5,10.3,5.7,10.3,5.7l-2.1,1.4l-11.4-0.9l-6.2-5l-0.4-4.9
			C308.8,177.4,310.1,177.6,318.5,181.1z"/>
		<path class="st6" d="M277.9,196.6c-0.3,0-5.9,0.3-3.3,8.8c2.6,8.5,2.9,13.2-0.4,17.6c-3.2,4.4-4.4,6.7-4.4,6.7
			c11.9,18.4,11.4,16,11.2,17.5c-0.2,1.5-4.1,0.2-4.3-1.5c-0.2-1.7,0.4-1.6-2.7-4.5c-3.1-2.9-10.4-9.9-9.9-11.8
			c0.5-1.9,3.1-13.5,1.1-14.9c-2-1.3-16.1-13.4-12.7-18.4C255.8,191.2,277.9,196.6,277.9,196.6z"/>
		<path class="st6" d="M318.3,199.9c0,0-7.7,16.2-12.1,19.8c-4.4,3.6-6.4,14.2-6.2,17.6c0.3,5-10,10.6-13.6,10.6
			c-3.6,0-2.3-2.4,0-3.2c2.3-0.9,4.5-0.9,7.3-4.8c2.3-3.2-0.3-21.3,0.5-22.9c0.8-1.6,11.5-5.5,9.7-12.8c-1.7-7.3,2.8-10.8,2.8-10.8
			L318.3,199.9z"/>
		<polygon class="st6" points="326.1,159.6 316.2,154.6 320.1,162.7 		"/>
		<path class="st3" d="M252,197.4c-9.1-31.6,28.8-4.8,48.8-11.2c0.1,0,4.6-3.8,8-8.2c2.3-2.9,2.5-1.4,3.7-4.9
			c0.8-2.5,3.7-7.3,3.6-8.2c-0.1-0.9-3.9-8.9-3.9-8.9s7.9,5.1,9.6,4.5c0,0,7-2.1,8-0.2c1,1.9,5.2,7.2,7.3,8c2,0.8,12.1,2.9,12.1,2.9
			s0.9,9.6-5.6,9.2c-6.5-0.5-13.3-1.9-14.9,3.2c-0.1,0.2-5.8,45-31.2,32.8c-5.1-2.5-21-12.7-26.4-15.8
			C265.7,197.2,253.7,203.5,252,197.4z"/>
		<path class="st3" d="M248.1,197.4c1-2,1.5-4,2-6.1c0.5-2.3,1-4.6,2.1-6.6c0.4-0.8,1-1.6,1.8-1.9c0.9-0.3,1.7,0.4,2.4,1
			c0,0,0,0,0,0c0,0,0.1,0.1,0.1,0.1c0.1,0.1,0.1,0.1,0.2,0.2c0.3,0.3,0.7-0.2,0.4-0.5c-0.1-0.1-0.1-0.1-0.2-0.2
			c-3-3-7.6-3.6-11.7-3.9c-4.4-0.3-8.7,0.1-13,1.2c-4.1,1-8.1,2.9-12.4,3.1c-3.8,0.2-7.8-1-10.8-3.3c-1.4-1-3-2.5-3.9-4.2
			c-2.2-5-3.1-3.8-4.9,0.4c-0.7,1.6-1.4,3.4-1.6,5.2c-0.2,1.5,0.4,3.1,2,3.7c0.9,0.3,1.8,0,2.5-0.5c-1.7,4.3-2.5,9.7,1.2,13.1
			c1.8,1.7,4.2,2.3,6.6,1.8c1.8-0.4,3.5-1.4,5.1-2.5c-0.4,0.7-0.8,1.5-1,2.3c-0.3,1.6,0.5,2.9,1.6,4c2.8,2.6,7.3,2.7,10.2,0.1
			c1.7-1.6,2.7-3.8,3.7-5.8c0.4-0.8,0.8-1.5,1.2-2.2c0.2-0.3,0.6-0.7,1-0.8c0.4-0.2,0.9,0.4,1.1,0.7c0.5,0.6,0.9,1.2,1.3,1.8
			c0.5,0.7,1.1,1.4,1.7,2.1c1.1,1.3,2.4,2.5,4.1,2.9C244.2,203.2,246.7,200,248.1,197.4z"/>
		<path class="st3" d="M321.5,193.5c0,0-1.1,23.5,3.1,26.9c4.2,3.5,12,11.7,13.9,14.5c1.5,2.2,9.3,5.7,8.3,7.9
			c-2.1,4.3-16-10.1-16.5-10.4c-1.9-1.2-16.7-7.9-17.3-10.4c-0.6-2.4-1.6-16.9-1.6-16.9L321.5,193.5z"/>
		<path class="st3" d="M251.7,185.2c-0.4,0.2-3.3,10.5-4.4,20.6c-1.1,10.1-4.2,19.8-9,20.1c-4.9,0.3-6.6,0.5-6.8,2.3
			c-0.2,1.8-10.8,12.6-9,15c2.8,3.7,12.2-10.5,16.9-11.1c2.4-0.3,31.8-25.2,29-35.8C265.4,185.8,251.7,185.2,251.7,185.2z"/>
		<g>
			<path class="st11" d="M311.9,214.7C311.9,214.7,311.9,214.7,311.9,214.7c0.1,0,0.2-0.1,0.2-0.2c-2.2-6.2-8.7-11.5-8.8-11.6
				c-0.1-0.1-0.2,0-0.2,0c-0.1,0.1,0,0.2,0,0.2c0.1,0.1,6.5,5.3,8.7,11.4C311.7,214.7,311.8,214.7,311.9,214.7z"/>
		</g>
		<g>
			<path class="st4" d="M308.8,177.4c1.8,5.1,5.7,8.2,11.5,9.3c3.9,0.7,7.5,0.2,8.5,0c-0.2,0.7-0.7,2.8-0.7,3.1
				c-0.9,0.1-2.1,0.2-3.5,0.2c-1.4,0-3.1-0.1-4.8-0.4c-6.4-1.1-10.9-4.5-13.3-9.8C307.4,179.1,308.1,178.3,308.8,177.4z"/>
		</g>
	</g>
	<path class="st4" d="M136.4,147.9c-1.6,3.9-2,7.9-0.5,11.9c1.3,3.5,3.6,6.6,6.3,9.2c5.8,5.5,12.9,9.2,20.1,12.5
		c9.8,4.6,20.4,6.9,31.2,6.9c21.9,0,42.6-7.9,63.7-12.4c11-2.4,22.5-4.3,33.8-2.9c4.3,0.5,8.5,1.5,12.5,3c2.9,1.1,7.3,3.1,7.7,6.7
		c0,0.4,0.7,0.4,0.7,0c0-0.1,0-0.3-0.1-0.4c-0.6-3.2-4.1-5.1-6.8-6.3c-3.6-1.5-7.4-2.6-11.3-3.2c-11-1.8-22.3-0.3-33.2,1.8
		c-21.4,4.2-42.2,12.5-64.2,13.1c-11.2,0.3-22.5-1.6-32.7-6.3c-7.2-3.3-14.6-7-20.5-12.4c-2.9-2.7-5.5-5.8-6.8-9.6
		c-0.7-1.9-1-4-0.8-6c0.2-2.4,1-4.7,2.1-6.8c2-4.2,4.8-7.9,7.8-11.4c0,0,0.1-0.1,0.1-0.1c0.3,0.6,0.5,1.2,0.8,1.8
		c1.4,3.1,2.8,6.3,4.9,9c2.4,3.2,5.8,5.9,9.2,7.9c3.8,2.3,8.2,3.7,12.7,3.2c4.1-0.4,8.1-2,11.1-4.8c5.3-5.1,6.5-13.2,3.5-19.8
		c-3-6.7-9.3-11.5-16.7-11.5c-7.2,0-14.1,3.4-19.6,7.7c-2.1,1.6-3.9,3.4-5.6,5.3c-0.9-2.3-1.8-4.5-2.8-6.7c-0.5-1.2-1.1-2.3-1.7-3.5
		c-0.1,0.2-0.2,0.5-0.3,0.7c1.7,3.2,3,6.6,4.3,10c-0.6,0.7-1.2,1.4-1.7,2.1C140.8,139.9,138.1,143.7,136.4,147.9z M146,134.5
		c2.2-2.5,4.8-4.8,7.6-6.7c5.8-4,13.3-7.3,20.6-5.9c7.6,1.4,13.7,8.5,14.5,16.2c0.4,3.7-0.3,7.5-2.4,10.7c-2.2,3.5-5.7,5.9-9.7,7
		c-4.8,1.3-9.7,0.7-14.1-1.5c-3.8-1.9-7.6-4.7-10.3-8.1C149.5,142.7,147.7,138.6,146,134.5z"/>
	<path class="st6" d="M330.5,168.7c0.1,0.9,0.6,1.6,1.1,1.5c0.5-0.1,0.9-0.8,0.7-1.7c-0.1-0.9-0.6-1.6-1.1-1.5
		C330.7,167.1,330.3,167.8,330.5,168.7z"/>
	<path class="st2" d="M345.8,170.8c-0.5,0.1-0.7,0.7-0.6,1.1s0.5,0.8,0.9,1c0.4,0.2,0.9,0.3,1.3,0.5c0.2,0.1,0.5,0.2,0.6,0.4
		c0.3,0.3,0.2,0.8,0.2,1.2c0,0.1-0.1,0.3,0,0.4c0,0.1,0.1,0.1,0.2,0.2"/>
	<path class="st2" d="M347.9,177.2c0,0-10-0.1-16-2.5"/>
	<path class="st12" d="M90.3,114.1c0,0,7.9,37.9,8.6,41.7"/>
	<line class="st12" x1="102.3" y1="179" x2="113.9" y2="224.3"/>
	<path class="st12" d="M68.5,155c0,0-2.4,14.9-5.9,18.9c-3.5,3.9-36.8,30.4-36.8,30.4"/>
	<path class="st12" d="M86,87.7c0,0-1.7,1.1-3.8,4"/>
	<path class="st12" d="M84.8,86.1c0,0-2.1,0.7-4.2,1.9"/>
	<path class="st12" d="M89.9,50.9c0,0,3.8,6.3,3.2,11.1c-0.6,4.8-0.7,25.3-0.7,25.3"/>
	<path class="st12" d="M71.9,43.2c0,0-2.9-2.6-6.1-2.3"/>
	<g>
		<path class="st6" d="M150.5,239.6c3.2-1.6,5.5-4.7,7.6-7.6c0.2-0.3,0.4-0.6,0.6-0.8l-2.1-10.1c-1.7-0.6-3.6-0.5-5.3,0
			c-3.3,1-5.9,3.6-8.8,5.6c-2.9,2-6.6,3.5-9.8,2c-0.8,0.3-1.3,1.2-1.3,2c0,0.9,0.4,1.7,0.9,2.4c1.8,3,4.6,5.6,7.9,6.8
			C143.5,241.3,147.3,241.2,150.5,239.6z"/>
		<path class="st3" d="M196.7,220.3c-2.2-1.5-4.9-2-7.5-1.4c-2.5,0.6-4.8,2.4-6,4.7c-0.5,0.9-0.8,1.9-0.7,2.9c0.1,1,0.7,1.8,1.3,2.6
			c1.5,2.1,3.2,4.4,5.6,5.5c2.3,1.1,5.1,0.9,7.6,0.3c2.7-0.7,5.3-1.8,7.6-3.4c2.2-1.6,4.7-3.6,7.3-2.9c0.6,0.2,1.3,0.5,1.9,0.3
			c0.9-0.4,0.9-1.6,0.7-2.6c-0.2-0.8-0.4-1.6-0.8-2.3c-1.3-1.9-4.1-2-6.4-1.5c-2.3,0.5-4.7,1.3-6.9,0.4
			C199,222.3,197.9,221.2,196.7,220.3z"/>
		<path class="st6" d="M186.1,214.2c-3.3-0.4-6.7-0.4-10,0.2c-3.1,0.5-6.1,1.5-9.2,2.2c-3,0.7-6,1.3-9.1,1.6
			c-2.7,0.3-5.9,0.3-7.7-1.9c-0.6-0.8-0.9-1.7-1.5-2.5c-0.6-0.8-1.6-1.4-2.6-1c-1,0.4-1.2,1.7-0.9,2.8s1,1.9,1.4,2.9
			c1.5,3.5-0.6,7.6,0.4,11.3c0.7,2.8,3.3,4.9,6.2,5.1c2.9,0.2,5.6-1.4,8.5-1.3c2.5,0.1,4.8,1.5,7.1,2.6c4,1.9,8.5,3,12.9,2.5
			s8.7-3,10.8-6.9c1.3-2.4,1.7-5.3,1.7-8c0-2.7-0.5-5.7-2.5-7.5C190,214.9,188,214.4,186.1,214.2z"/>
		<path class="st6" d="M196.8,206c0.4,0.8,0.7,1.8,1.6,2.2c0.4,0.2,0.8,0.1,1.2,0.1c2.1-0.3,5.4-3.3,4,3.5
			c-0.8,3.5-11.2,8.1-11.7,8.3c-1.8,0.6-3.9,0.7-5.7,0.1c-1.2-0.4-2.3-1.1-2.9-2.2c-0.7-1.2-0.6-2.7-0.5-4.1
			c0.1-1.2,0.6-2.5,0.7-3.7c0.1-1.1-0.1-1.8,0.4-2.9C186.7,201.3,195.1,202.9,196.8,206z"/>
		<path class="st4" d="M203.1,207.4c-0.1,0-0.1,0-0.2,0.1c-0.3,0.1-0.6,0.2-0.9,0.4c-0.1,0.1-0.2,0.1-0.2,0.2
			c-0.1,0.2,0.1,0.4,0.4,0.5s0.5,0.1,0.6,0.3c0.2,0.2,0.2,0.4,0.2,0.6c0.1,0.4,0.1,0.8,0.2,1.2c0.2,0.1,0.4,0.1,0.6,0
			C204.7,208.3,203.8,207.2,203.1,207.4z"/>
		<path class="st13" d="M193.9,212.7c0,0,2.7,2.1,8.7-0.6"/>
		<path class="st11" d="M195.5,208.1c0.1,0.4,0,0.8-0.3,0.9c-0.3,0.1-0.7-0.2-0.8-0.6c-0.1-0.4,0-0.8,0.3-0.9
			C195,207.5,195.4,207.7,195.5,208.1z"/>
		<path class="st6" d="M155.5,234c0.5-2.1,1-4.3,0.1-6.3c-0.8-1.9-2.8-3.1-4.9-3.2s-4.1,0.7-5.7,2c-2.7,2.2-4.1,5.6-6,8.5
			c-1.9,2.9-4.8,5.7-8.3,5.6c-0.7,0.5-0.8,1.6-0.4,2.4c0.3,0.8,1,1.4,1.7,1.9c2.8,2.1,6.3,3.4,9.9,3.4c3.5-0.1,7.1-1.6,9.4-4.2
			C153.7,241.1,154.7,237.5,155.5,234z"/>
		<path class="st3" d="M194.5,228.5c-1.6-2-4.1-3.4-6.8-3.5s-5.3,0.8-7.1,2.7c-0.7,0.7-1.3,1.6-1.5,2.5c-0.1,1,0.2,1.9,0.5,2.9
			c0.8,2.5,1.7,5.1,3.7,6.9c1.9,1.7,4.6,2.4,7.1,2.5c2.8,0.2,5.6-0.2,8.3-1c2.6-0.8,5.5-2.1,7.8-0.6c0.5,0.4,1.1,0.9,1.7,0.8
			c1-0.1,1.4-1.3,1.5-2.3c0.1-0.8,0.1-1.6-0.1-2.4c-0.7-2.2-3.4-3.1-5.7-3.3c-2.3-0.2-4.9-0.2-6.7-1.6
			C196.1,231.1,195.4,229.7,194.5,228.5z"/>
		<path class="st13" d="M154,229.5c0,0,1.3,0.4,1.2,3.2"/>
		<path class="st13" d="M197.8,236.7c0.9,0,1.9,0.2,2.8,0.6"/>
		<path class="st13" d="M198.8,236c0.5,0.1,1,0.2,1.5,0.3"/>
		<path class="st13" d="M199.2,234.7c0.6,0.2,1.1,0.4,1.6,0.8"/>
		<path class="st13" d="M135.7,239.4c1.2-0.3,2.2-1.1,2.8-2.1"/>
		<path class="st13" d="M137,240.4c0.8-0.4,1.4-1,1.9-1.8"/>
		<path class="st13" d="M137.6,242.3c0.9-0.5,1.6-1.2,2.2-2.1"/>
		<path class="st13" d="M194,228.1c0,0,5,4.4,6.8,4.9"/>
		<path class="st13" d="M136.8,237.5c3.2-5.7,5.4-7.6,10.5-10.7l-0.1-3"/>
		<path class="st4" d="M184.9,215.2c9.7,5.6,8.6,3.7,9.8,3.7l0,3.3c0,0-3.2,2.7-10.4-2.6C180.8,217,184.9,215.2,184.9,215.2z"/>
		<g>
			<path class="st3" d="M156.1,216.6c-1.3,3.8-1.5,8.5,1.2,11.5c1.7,1.9,4.3,2.9,6.9,3.2c5.7,0.8,11.8-1,16.1-4.8
				c4.4-3.8,7-9.5,7-15.3c0-2.1-0.7-4.5-2.7-5.1c-1.5,2.9-5,4.2-8.2,4.4s-6.5-0.6-9.7-0.7c-3.3-0.1-6.8,0.7-8.8,3.3
				C157.1,214.1,156.6,215.3,156.1,216.6z"/>
			<path class="st13" d="M157.1,217.5c0.5-1.6,1.7-3,3.2-3.7c1.5-0.7,3.3-0.8,4.9-0.3c1.2,0.4,2.2,1.2,3.4,1.3
				c1.6,0.2,3.2-0.7,4.6-1.5"/>
			<path class="st13" d="M161.6,215.9c6.6-2.2,7.9,3.7,14.5,0.7c1.9-0.9,3.4-2.4,4.3-4.3"/>
			<path class="st13" d="M163.6,226.8c3.1,1.3,6.9,1.3,9.9-0.2"/>
		</g>
		<ellipse transform="matrix(0.9759 -0.2182 0.2182 0.9759 -44.2032 47.7188)" class="st4" cx="193.9" cy="224" rx="1" ry="1.8"/>
	</g>
	<path class="st14" d="M355.1,147.6c-7.2-8.1-17.4-13.5-28.1-14.8c-10.8-1.3-21.9,1.5-30.8,7.7c-8,5.6-14,13.7-21.6,19.9
		c-16,13-37.8,16.5-58.4,15.1c-16.3-1.1-32.6-5-46.7-13.2c-14.1-8.2-25.9-20.9-31.4-36.3"/>
	<path class="st8" d="M141,117.4c-0.5,0.3-1.1,0.7-1.5,1.1c0.2,1.4,0,2.8-1,3.9c-1.1,1.3-2.6,1.7-4,1.6c-0.8,1-1.5,2.1-2,3.3
		c3.4,0.6,6.8,0.1,8-2.1c1.5-2.8,1.5-5.6,0.9-8.1C141.3,117.2,141.1,117.3,141,117.4z"/>
</g>
</svg>
