<?xml version="1.0" encoding="utf-8"?>
<!-- Generator: Adobe Illustrator 25.4.1, SVG Export Plug-In . SVG Version: 6.00 Build 0)  -->
<svg version="1.1" id="Ebene_1" xmlns="http://www.w3.org/2000/svg" xmlns:xlink="http://www.w3.org/1999/xlink" x="0px" y="0px"
	 viewBox="0 0 60 21" style="enable-background:new 0 0 60 21;" xml:space="preserve">
<style type="text/css">
	.st0{fill:#5A4650;}
</style>
<g>
	<path class="st0" d="M14.3,19.1c0,1.4-1,2.1-2.2,1.8c-0.3-0.1-0.6-0.2-0.9-0.2c-0.4-0.1-0.7-0.1-1.1,0c-0.4,0.1-0.8,0.2-1.2,0.3
		c-1.2,0.2-1.9-0.8-1.9-1.8c0-0.7,0.4-1.2,0.9-1.6c0.6-0.4,1-1,1.2-1.6c0.2-0.4,0.4-0.7,0.7-1c0.7-0.5,1.5-0.3,2,0.4
		c0.1,0.2,0.2,0.3,0.3,0.5c0.3,0.6,0.7,1.2,1.2,1.6C13.9,18,14.3,18.5,14.3,19.1z"/>
	<path class="st0" d="M10.1,12.8c0,0.2,0,0.5-0.2,0.7c-0.4,1-1.6,1.1-2.2,0.3c-0.4-0.5-0.4-1.1-0.4-1.7c0-0.4,0.1-0.7,0.3-1.1
		c0-0.1,0.1-0.2,0.2-0.3c0.4-0.6,1.1-0.6,1.6-0.1c0.4,0.4,0.6,0.9,0.7,1.5C10.1,12.3,10.1,12.6,10.1,12.8z"/>
	<path class="st0" d="M13.9,12.4c0,0.4-0.1,0.9-0.3,1.2c-0.3,0.5-0.7,0.7-1.3,0.7c-0.6-0.1-1-0.5-1.1-1c-0.2-1,0-1.9,0.7-2.7
		c0.5-0.6,1.3-0.5,1.7,0.2C13.8,11.3,13.9,11.8,13.9,12.4z"/>
	<path class="st0" d="M16.3,14.9c0,0.7-0.1,1.3-0.6,1.8c-0.3,0.4-0.7,0.6-1.2,0.5c-0.6-0.1-1-0.6-1-1.2c0-0.9,0.4-1.7,1.1-2.2
		c0.6-0.4,1.3-0.2,1.5,0.5C16.3,14.5,16.3,14.8,16.3,14.9z"/>
	<path class="st0" d="M7.7,15.8c0,0.8-0.3,1.2-0.8,1.4c-0.5,0.2-0.9,0-1.2-0.3C5.2,16.5,5.1,16,5,15.4c0-0.4,0-0.7,0.1-1.1
		c0.2-0.7,0.9-1,1.5-0.5C7.3,14.3,7.6,15.1,7.7,15.8z"/>
</g>
<path class="st0" d="M7.3,8.5V0.7c0-0.2-0.1-0.4-0.2-0.5C7,0.1,6.8,0,6.6,0C6.4,0,6.2,0.1,6.1,0.2C6,0.3,5.9,0.5,5.9,0.7v3.2H1.4
	V0.7c0-0.2-0.1-0.4-0.2-0.5C1,0.1,0.9,0,0.7,0C0.5,0,0.3,0.1,0.2,0.2C0.1,0.3,0,0.5,0,0.7v7.8C0,8.7,0.1,8.9,0.2,9
	c0.1,0.1,0.3,0.2,0.5,0.2C0.9,9.2,1,9.1,1.2,9c0.1-0.1,0.2-0.3,0.2-0.5V5.2h4.5v3.3C5.9,8.7,6,8.9,6.1,9c0.1,0.1,0.3,0.2,0.5,0.2
	C6.8,9.2,7,9.1,7.1,9C7.2,8.9,7.3,8.7,7.3,8.5z"/>
<path class="st0" d="M10.9,8.8c0.5,0.3,1.1,0.5,1.8,0.5c0.7,0,1.3-0.2,1.8-0.5c0.5-0.3,0.9-0.7,1.3-1.3c0.3-0.5,0.5-1.2,0.5-1.9v-5
	c0-0.2-0.1-0.3-0.2-0.5C16,0.1,15.8,0,15.7,0c-0.2,0-0.3,0.1-0.5,0.2S15,0.5,15,0.7v5c0,0.5-0.1,0.9-0.3,1.2
	c-0.2,0.3-0.5,0.6-0.8,0.8s-0.7,0.3-1.1,0.3c-0.4,0-0.7-0.1-1.1-0.3S11,7.2,10.8,6.8c-0.2-0.3-0.3-0.7-0.3-1.2v-5
	c0-0.2-0.1-0.3-0.2-0.5C10.2,0.1,10,0,9.9,0C9.7,0,9.5,0.1,9.4,0.2C9.2,0.3,9.2,0.5,9.2,0.7v5c0,0.7,0.2,1.3,0.5,1.9
	C9.9,8,10.4,8.5,10.9,8.8z"/>
<path class="st0" d="M18.8,9.2c0.2,0,0.3-0.1,0.4-0.2s0.2-0.3,0.2-0.4V2.4L24.5,9c0.1,0.1,0.1,0.1,0.2,0.1c0.1,0,0.2,0.1,0.3,0.1
	c0.2,0,0.3-0.1,0.5-0.2c0.1-0.1,0.2-0.3,0.2-0.5V0.6c0-0.2-0.1-0.3-0.2-0.4C25.4,0.1,25.2,0,25,0c-0.2,0-0.3,0.1-0.4,0.2
	c-0.1,0.1-0.2,0.3-0.2,0.4v6.2l-5-6.6c-0.1-0.1-0.1-0.1-0.2-0.2C19.1,0,19,0,18.9,0c-0.2,0-0.4,0.1-0.5,0.2
	c-0.1,0.1-0.2,0.3-0.2,0.5v7.9c0,0.2,0.1,0.3,0.2,0.4C18.5,9.1,18.6,9.2,18.8,9.2z"/>
<path class="st0" d="M28.2,9.2h3.2c0.9,0,1.6-0.2,2.1-0.6c0.6-0.4,1-1,1.3-1.7c0.3-0.7,0.4-1.5,0.4-2.3c0-0.6-0.1-1.2-0.2-1.8
	c-0.2-0.6-0.4-1-0.7-1.5c-0.3-0.4-0.7-0.8-1.2-1c-0.5-0.2-1-0.4-1.7-0.4h-3.2c-0.2,0-0.4,0.1-0.5,0.2c-0.1,0.1-0.2,0.3-0.2,0.5v7.8
	c0,0.2,0.1,0.4,0.2,0.5C27.9,9.1,28,9.2,28.2,9.2z M32.5,1.5c0.3,0.2,0.6,0.4,0.8,0.7c0.2,0.3,0.4,0.7,0.5,1.1
	c0.1,0.4,0.2,0.8,0.2,1.3c0,0.6-0.1,1.2-0.3,1.7c-0.2,0.5-0.5,0.9-0.8,1.2c-0.4,0.3-0.9,0.5-1.5,0.5h-2.3V1.3h2.3
	C31.8,1.3,32.1,1.4,32.5,1.5z"/>
<path class="st0" d="M42.5,9c0.1-0.1,0.2-0.3,0.2-0.5c0-0.2-0.1-0.3-0.2-0.4C42.4,8,42.2,7.9,42,7.9h-3.8V5.1h3.2
	c0.2,0,0.3-0.1,0.5-0.2c0.1-0.1,0.2-0.3,0.2-0.4c0-0.2-0.1-0.3-0.2-0.5c-0.1-0.1-0.3-0.2-0.5-0.2h-3.2V1.3H42c0.2,0,0.3-0.1,0.5-0.2
	c0.1-0.1,0.2-0.3,0.2-0.4s-0.1-0.3-0.2-0.5C42.4,0.1,42.2,0,42,0h-4.5c-0.2,0-0.4,0.1-0.5,0.2c-0.1,0.1-0.2,0.3-0.2,0.5v7.8
	c0,0.2,0.1,0.4,0.2,0.5c0.1,0.1,0.3,0.2,0.5,0.2H42C42.2,9.2,42.4,9.1,42.5,9z"/>
<path class="st0" d="M5,19H1.4v-7.2c0-0.2-0.1-0.4-0.2-0.5c-0.1-0.1-0.3-0.2-0.5-0.2c-0.2,0-0.4,0.1-0.5,0.2C0.1,11.5,0,11.6,0,11.8
	v7.8c0,0.2,0.1,0.4,0.2,0.5c0.1,0.1,0.3,0.2,0.5,0.2H5c0.2,0,0.3-0.1,0.5-0.2c0.1-0.1,0.2-0.3,0.2-0.5s-0.1-0.3-0.2-0.5
	C5.4,19.1,5.2,19,5,19z"/>
<path class="st0" d="M24.1,11.1c-0.2,0-0.3,0.1-0.5,0.2c-0.1,0.1-0.2,0.3-0.2,0.5v5c0,0.5-0.1,0.9-0.3,1.2c-0.2,0.3-0.5,0.6-0.8,0.8
	c-0.3,0.2-0.7,0.3-1.1,0.3c-0.4,0-0.7-0.1-1.1-0.3c-0.3-0.2-0.6-0.5-0.8-0.8c-0.2-0.3-0.3-0.7-0.3-1.2v-5c0-0.2-0.1-0.3-0.2-0.5
	c-0.1-0.1-0.3-0.2-0.5-0.2c-0.2,0-0.4,0.1-0.5,0.2c-0.1,0.1-0.2,0.3-0.2,0.5v5c0,0.7,0.2,1.3,0.5,1.9c0.3,0.5,0.7,1,1.3,1.3
	c0.5,0.3,1.1,0.5,1.8,0.5c0.7,0,1.3-0.2,1.8-0.5c0.5-0.3,0.9-0.7,1.3-1.3c0.3-0.5,0.5-1.2,0.5-1.9v-5c0-0.2-0.1-0.3-0.2-0.5
	C24.5,11.2,24.3,11.1,24.1,11.1z"/>
<path class="st0" d="M31.7,11.2h-4.4c-0.2,0-0.4,0.1-0.5,0.2c-0.1,0.1-0.2,0.3-0.2,0.5v7.8c0,0.2,0.1,0.4,0.2,0.5
	c0.1,0.1,0.3,0.2,0.5,0.2c0.2,0,0.3-0.1,0.5-0.2C28,20,28,19.8,28,19.7v-3.3h3.1c0.2,0,0.3-0.1,0.5-0.2c0.1-0.1,0.2-0.3,0.2-0.4
	c0-0.2-0.1-0.3-0.2-0.5c-0.1-0.1-0.3-0.2-0.5-0.2H28v-2.6h3.7c0.2,0,0.3-0.1,0.5-0.2c0.1-0.1,0.2-0.3,0.2-0.4c0-0.2-0.1-0.3-0.2-0.5
	C32.1,11.2,31.9,11.2,31.7,11.2z"/>
<path class="st0" d="M38.6,12.4c0.2,0,0.3-0.1,0.5-0.2c0.1-0.1,0.2-0.3,0.2-0.4c0-0.2-0.1-0.3-0.2-0.5c-0.1-0.1-0.3-0.2-0.5-0.2
	h-4.5c-0.2,0-0.4,0.1-0.5,0.2c-0.1,0.1-0.2,0.3-0.2,0.5v7.8c0,0.2,0.1,0.4,0.2,0.5c0.1,0.1,0.3,0.2,0.5,0.2h4.5
	c0.2,0,0.3-0.1,0.5-0.2c0.1-0.1,0.2-0.3,0.2-0.5c0-0.2-0.1-0.3-0.2-0.4c-0.1-0.1-0.3-0.2-0.5-0.2h-3.8v-2.8H38
	c0.2,0,0.3-0.1,0.5-0.2c0.1-0.1,0.2-0.3,0.2-0.4c0-0.2-0.1-0.3-0.2-0.5C38.4,15.1,38.2,15,38,15h-3.2v-2.6H38.6z"/>
<path class="st0" d="M47.6,19.2c-0.1-0.1-0.2-0.1-0.2-0.3c0-0.1-0.1-0.3-0.1-0.4c0-0.2,0-0.4-0.1-0.7c0-0.3-0.1-0.6-0.2-0.8
	c-0.1-0.2-0.3-0.4-0.5-0.6c-0.1-0.1-0.3-0.2-0.4-0.2c0.2-0.1,0.5-0.3,0.6-0.5c0.2-0.2,0.4-0.5,0.6-0.8c0.1-0.3,0.2-0.6,0.2-1
	c0-0.5-0.1-1-0.4-1.4c-0.2-0.4-0.6-0.7-0.9-1c-0.4-0.2-0.8-0.3-1.3-0.3h-3.7c-0.2,0-0.4,0.1-0.5,0.2c-0.1,0.1-0.2,0.3-0.2,0.5v7.8
	c0,0.2,0.1,0.4,0.2,0.5c0.2,0.1,0.3,0.2,0.5,0.2c0.2,0,0.3-0.1,0.4-0.2c0.1-0.1,0.2-0.3,0.2-0.5v-2.9h2.6c0.2,0,0.4,0,0.5,0.1
	c0.2,0,0.3,0.1,0.4,0.2c0.1,0.1,0.2,0.2,0.3,0.4c0.1,0.2,0.1,0.3,0.1,0.6c0,0.5,0,0.9,0.1,1.1c0.1,0.3,0.2,0.5,0.3,0.7
	c0.1,0.2,0.3,0.3,0.4,0.4c0.1,0,0.2,0.1,0.3,0.1c0.1,0,0.2,0,0.4,0c0.1,0,0.2-0.1,0.3-0.2c0.1-0.1,0.2-0.3,0.1-0.5
	C47.8,19.5,47.7,19.3,47.6,19.2z M45.4,15.4c-0.2,0.1-0.4,0.2-0.6,0.2h-2.9v-3.2h2.9c0.3,0,0.6,0.1,0.9,0.4c0.2,0.3,0.4,0.6,0.4,1.1
	c0,0.3-0.1,0.6-0.2,0.9C45.8,15.1,45.6,15.3,45.4,15.4z"/>
<path class="st0" d="M50,11.2c-0.2,0-0.4,0.1-0.5,0.2c-0.1,0.1-0.2,0.3-0.2,0.5v7.8c0,0.2,0.1,0.4,0.2,0.5c0.1,0.1,0.3,0.2,0.5,0.2
	c0.2,0,0.3-0.1,0.5-0.2c0.1-0.1,0.2-0.3,0.2-0.5v-7.8c0-0.2-0.1-0.4-0.2-0.5C50.3,11.2,50.1,11.2,50,11.2z"/>
<path class="st0" d="M59.8,11.3c-0.1-0.1-0.3-0.2-0.4-0.2c-0.2,0-0.3,0.1-0.4,0.2c-0.1,0.1-0.2,0.3-0.2,0.4V18l-5-6.6
	c-0.1-0.1-0.1-0.1-0.2-0.2c-0.1,0-0.2-0.1-0.3-0.1c-0.2,0-0.4,0.1-0.5,0.2c-0.1,0.1-0.2,0.3-0.2,0.5v7.9c0,0.2,0.1,0.3,0.2,0.4
	c0.1,0.1,0.3,0.2,0.4,0.2c0.2,0,0.3-0.1,0.4-0.2c0.1-0.1,0.2-0.3,0.2-0.4v-6.2l5.1,6.6c0.1,0.1,0.1,0.1,0.2,0.1
	c0.1,0,0.2,0.1,0.3,0.1c0.2,0,0.3-0.1,0.5-0.2c0.1-0.1,0.2-0.3,0.2-0.5v-7.9C60,11.6,59.9,11.5,59.8,11.3z"/>
</svg>
