<?xml version="1.0" encoding="utf-8"?>
<!-- Generator: Adobe Illustrator 25.4.1, SVG Export Plug-In . SVG Version: 6.00 Build 0)  -->
<svg version="1.1" id="Ebene_1" xmlns="http://www.w3.org/2000/svg" xmlns:xlink="http://www.w3.org/1999/xlink" x="0px" y="0px"
	 viewBox="0 0 622.2 405.7" style="enable-background:new 0 0 622.2 405.7;" xml:space="preserve">
<style type="text/css">
	.st0{fill:url(#SVGID_1_);}
	.st1{fill:url(#SVGID_00000013888825544814647110000007195110993764712868_);}
	.st2{fill:url(#SVGID_00000047036147162896568860000006280970283394441095_);}
	.st3{fill:url(#SVGID_00000018920672272825543760000011738852911704653724_);}
	.st4{fill:url(#SVGID_00000083796474363443944480000015099339646459707788_);}
	.st5{fill:url(#SVGID_00000080919288289850621730000004274504695767426176_);}
	.st6{fill:url(#SVGID_00000141453637343535536030000003132291865810122421_);}
	.st7{fill:url(#SVGID_00000003811034974056178530000001855373164574186899_);}
	.st8{fill:url(#SVGID_00000088815278313289015590000007943889134046178440_);}
	.st9{fill:url(#SVGID_00000044160647266208998250000009086693626085126562_);}
	.st10{fill:url(#SVGID_00000059298035381541885060000001032820028636921475_);}
	.st11{fill:url(#SVGID_00000115509484231537026580000015931820511444253602_);}
	.st12{fill:url(#SVGID_00000150072460919147900380000006627958051103763387_);}
	.st13{fill:url(#SVGID_00000053524206096534043840000014244604157780739982_);}
	.st14{fill:url(#SVGID_00000138570557243483427830000004530655888525047428_);}
	.st15{fill:#325743;}
	.st16{fill:url(#SVGID_00000164489513287186969790000001132709251296611731_);}
	.st17{fill:url(#SVGID_00000080196291596007401590000006996335116875967887_);}
	.st18{fill:url(#SVGID_00000032631601635227612850000007458598055506270347_);}
	.st19{fill:url(#SVGID_00000044175892446774289930000016784206869306922395_);}
	.st20{fill:url(#SVGID_00000147919247909459761780000003165581734438714537_);}
	.st21{fill:url(#SVGID_00000111879363827884629680000014601379788143735715_);}
	.st22{fill:url(#SVGID_00000157986669713123146000000014772715488784649362_);}
	.st23{fill:url(#SVGID_00000169517563161713123140000011052072195948036015_);}
	.st24{fill:#8DA136;}
	.st25{fill:url(#SVGID_00000170243305781529279930000008418303026417878948_);}
	.st26{fill:url(#SVGID_00000175318562943562901780000015527594636710632594_);}
	.st27{fill:url(#SVGID_00000175283454427220452430000007835964082700081819_);}
	.st28{fill:url(#SVGID_00000074432751520618351840000018154351714037898661_);}
	.st29{fill:url(#SVGID_00000155137968389868203150000003157701280296927896_);}
</style>
<g>
	<linearGradient id="SVGID_1_" gradientUnits="userSpaceOnUse" x1="311.0819" y1="99.7618" x2="311.0819" y2="-144.108">
		<stop  offset="0" style="stop-color:#DEEEFF"/>
		<stop  offset="1" style="stop-color:#1C96FF"/>
	</linearGradient>
	<path class="st0" d="M622.2,34.2l-1,205.3H6.6c-4.6-13.5-7-28.5-6.6-45c0.4-15.2,1.9-30.1,4.9-44.4c2-9.5,4.6-18.8,7.8-27.8
		c26.6-73,97.7-124.4,240-118.6C438.7,11.2,467,13,518.2,1.9C569.4-9.3,622.2,34.2,622.2,34.2z"/>
	
		<linearGradient id="SVGID_00000054239841482028017360000008583830349689972123_" gradientUnits="userSpaceOnUse" x1="317.4394" y1="271.8847" x2="317.4394" y2="443.9701">
		<stop  offset="1.036270e-02" style="stop-color:#B0BD24"/>
		<stop  offset="1" style="stop-color:#1F4A6E"/>
	</linearGradient>
	<path style="fill:url(#SVGID_00000054239841482028017360000008583830349689972123_);" d="M622.2,254.3v117.6H255.5
		C221.1,360,190.5,349.4,168,348c-28.6-1.8-76.8-15.1-114.3-44.4c-16.7-13.1-31.3-29.4-41-49.3H622.2z"/>
	
		<linearGradient id="SVGID_00000084499087273782377660000003389063654240230815_" gradientUnits="userSpaceOnUse" x1="337.9462" y1="283.1367" x2="337.9462" y2="432.6165">
		<stop  offset="1.036270e-02" style="stop-color:#B0BD24"/>
		<stop  offset="1" style="stop-color:#1F4A6E"/>
	</linearGradient>
	<path style="fill:url(#SVGID_00000084499087273782377660000003389063654240230815_);" d="M622.2,303.6v83.7c0,0-19.1-18.8-61.5-12
		c-31.9,5.1-55.4,20.2-102.1,27c-15.4,2.2-33.3,3.6-54.8,3.4c-17.5-0.2-35.4-2.5-53.3-6.1c-36.6-7.4-73-20.3-105.5-31.3
		c-1.3-0.4-2.5-0.9-3.7-1.3c-16.8-5.7-32.4-10.8-46.4-14.3c-5.7-1.4-11.2-2.6-16.3-3.4c-3.7-0.6-7.2-1-10.5-1.2
		c-28.6-1.8-76.8-15.1-114.3-44.4H622.2z"/>
	
		<linearGradient id="SVGID_00000054953456647978597960000006054724161160545962_" gradientUnits="userSpaceOnUse" x1="402.9873" y1="294.0143" x2="402.9873" y2="352.5555">
		<stop  offset="0" style="stop-color:#6B9E34"/>
		<stop  offset="1" style="stop-color:#1F4A6E"/>
	</linearGradient>
	<path style="fill:url(#SVGID_00000054953456647978597960000006054724161160545962_);" d="M622.2,281v33.7
		c-84.8-1.7-438.4-11.2-438.4-11.2C212.3,302.1,544.7,285,622.2,281z"/>
	
		<linearGradient id="SVGID_00000091728675961097222730000007198860982147580296_" gradientUnits="userSpaceOnUse" x1="310.6024" y1="356.496" x2="458.5664" y2="356.496">
		<stop  offset="0" style="stop-color:#FADDAF"/>
		<stop  offset="1" style="stop-color:#FABD5A"/>
	</linearGradient>
	<path style="fill:url(#SVGID_00000091728675961097222730000007198860982147580296_);" d="M458.6,402.3c-15.4,2.2-33.3,3.6-54.8,3.4
		c-17.5-0.2-35.4-2.5-53.3-6.1c-2.6-8-5.1-15.3-7.6-22c-17.6-47.4-31.7-62.9-32.2-63.5c0,0,0,0,0,0c3.2-13,16.3-3.5,19.9-0.7
		c0.6,0.4,0.9,0.7,0.9,0.7c39.6,19,73.4,42.7,98.9,63.5C441.3,386.5,450.8,395,458.6,402.3z"/>
	
		<linearGradient id="SVGID_00000026131720745580617110000017796240363980369849_" gradientUnits="userSpaceOnUse" x1="314.3282" y1="194.3807" x2="345.4114" y2="-47.6246">
		<stop  offset="0" style="stop-color:#DEEEFF"/>
		<stop  offset="1" style="stop-color:#1C96FF"/>
	</linearGradient>
	<path style="fill:url(#SVGID_00000026131720745580617110000017796240363980369849_);" d="M622.2,80.3v175.8H13.6
		c-9-17.6-14.1-38-13.6-61.6c0.4-15.2,1.9-30.1,4.9-44.4c2-9.5,4.6-18.8,7.8-27.8c22.7-1.8,63-2.8,107,6.8
		c67.4,14.7,141.3-58.6,241.3-61.1c100-2.5,115.1,35.3,173.1,30.7C585.3,94.6,586.8,74,622.2,80.3z"/>
	
		<linearGradient id="SVGID_00000127027361630841509440000003303170108659039665_" gradientUnits="userSpaceOnUse" x1="311.0818" y1="248.5306" x2="311.0818" y2="125.9308">
		<stop  offset="1.036270e-02" style="stop-color:#B0BD24"/>
		<stop  offset="1" style="stop-color:#3B8FD4"/>
	</linearGradient>
	<path style="fill:url(#SVGID_00000127027361630841509440000003303170108659039665_);" d="M622.2,163.1v98.4H16.6
		C5.8,242.8-0.6,220.5,0,194.4c0.4-15.2,1.9-30.1,4.9-44.4c33.4,2,105.3,8.6,162.9,29.5c77.7,28.1,130-24.4,141.8-33.1
		c11.8-8.7,57-46.2,98.3-33.2c41.3,13,76.4,69,114.2,58.2C554.8,162.3,588.3,150.2,622.2,163.1z"/>
	
		<linearGradient id="SVGID_00000054970091300385211790000011134785593311870357_" gradientUnits="userSpaceOnUse" x1="239.5332" y1="309.296" x2="239.5332" y2="345.9945">
		<stop  offset="0" style="stop-color:#6B9E34"/>
		<stop  offset="1" style="stop-color:#1F4A6E"/>
	</linearGradient>
	<path style="fill:url(#SVGID_00000054970091300385211790000011134785593311870357_);" d="M428.3,310l-97.9,3.2l-19.8,0.7l-15.7,0.6
		c0,0,0,0,0,0l-15.5,0.6l-12.1,0.4l-22.4,0.8l-4.9,0.2l-4.9,0.2l-19.1,0.7l-21.2,0.8l-16.3,0.6l-11.3,0.4l-28.7,1l-3.5,0.1l-5.8,0.2
		l-18.9,0.7l-27.6,1c-10-5.3-19.8-11.6-29-18.8c-1-0.8-2-1.6-3-2.4l10.8,0.2l48.8,1.1l18.8,0.4l5.9,0.1l3.5,0.1l17.8,0.4l10.9-0.1
		l11.3,0.1l190.8,4.8l20.6,0.4l6.7,0.2L428.3,310z"/>
	
		<linearGradient id="SVGID_00000180357406561035518730000017262928221903365270_" gradientUnits="userSpaceOnUse" x1="312.556" y1="243.6035" x2="308.2929" y2="297.8051">
		<stop  offset="0" style="stop-color:#6B9E34"/>
		<stop  offset="1" style="stop-color:#1F4A6E"/>
	</linearGradient>
	<path style="fill:url(#SVGID_00000180357406561035518730000017262928221903365270_);" d="M622.2,240l-213.4,6.8L3.1,226.8
		c1.7,7.8,4.2,15.2,7.2,22.1c0.8,1.8,1.6,3.6,2.5,5.3c0.4,0.9,0.9,1.8,1.4,2.7c37.5,0.6,104.3-0.7,172.5-2.6l435.6,4.1V240z"/>
	
		<linearGradient id="SVGID_00000183968433986051320270000016668252792635806094_" gradientUnits="userSpaceOnUse" x1="479.5905" y1="246.6939" x2="479.5905" y2="164.5155">
		<stop  offset="0" style="stop-color:#6B9E34"/>
		<stop  offset="1" style="stop-color:#1F4A6E"/>
	</linearGradient>
	<path style="fill:url(#SVGID_00000183968433986051320270000016668252792635806094_);" d="M507,191.1c-4.8-8.3-27.5-13.4-31.3-26.2
		c-3.8-12.7-31.3,1.3-22.5,21.3c8.8,20-4,15.9,8.1,30.7c2.8,3.5,9.9,7.5,16.5,7.9v20h1.9v-20c4.5-0.2,8.5-2.4,10.5-7.9
		C495.2,202.8,511.8,199.4,507,191.1z"/>
	
		<linearGradient id="SVGID_00000105412976409578385310000003093504934857400237_" gradientUnits="userSpaceOnUse" x1="320.4715" y1="244.9145" x2="320.4715" y2="190.3088">
		<stop  offset="0" style="stop-color:#6B9E34"/>
		<stop  offset="1" style="stop-color:#1F4A6E"/>
	</linearGradient>
	<path style="fill:url(#SVGID_00000105412976409578385310000003093504934857400237_);" d="M338.7,208c-3.2-5.5-18.3-8.9-20.8-17.4
		c-2.5-8.5-20.8,0.9-15,14.2c5.8,13.3-2.6,10.6,5.4,20.4c1.9,2.3,6.6,5,11,5.2v13.3h1.3v-13.3c3-0.2,5.6-1.6,7-5.2
		C330.9,215.8,341.9,213.5,338.7,208z"/>
	
		<linearGradient id="SVGID_00000179610618836433146230000001935957304579846571_" gradientUnits="userSpaceOnUse" x1="521.6063" y1="245.5644" x2="521.6063" y2="163.3861">
		<stop  offset="0" style="stop-color:#6B9E34"/>
		<stop  offset="1" style="stop-color:#1F4A6E"/>
	</linearGradient>
	<path style="fill:url(#SVGID_00000179610618836433146230000001935957304579846571_);" d="M531.4,195.1
		c-7.5-11.3-4.9-13.6-11.3-13.1c0,0-11.3,1.2-7.5,7.7c3.8,6.6-4.8,16.5-6.4,25.1c-1.6,8.6,8.6,4.8,14,10.7c0.7,0.8,1.5,1.3,2.2,1.6
		v16.4h1.6v-16.1c4-0.2,7.8-6.8,10.7-12.1C538.3,208.4,538.9,206.4,531.4,195.1z"/>
	
		<linearGradient id="SVGID_00000050626114409779317650000012098403238693762208_" gradientUnits="userSpaceOnUse" x1="430.556" y1="249.3291" x2="430.556" y2="167.1508">
		<stop  offset="0" style="stop-color:#6B9E34"/>
		<stop  offset="1" style="stop-color:#1F4A6E"/>
	</linearGradient>
	<path style="fill:url(#SVGID_00000050626114409779317650000012098403238693762208_);" d="M440.3,198.9
		c-7.5-11.3-4.9-13.6-11.3-13.1c0,0-11.3,1.2-7.5,7.7c3.8,6.6-4.8,16.5-6.4,25.1c-1.6,8.6,8.6,4.8,14,10.7c0.7,0.8,1.5,1.3,2.2,1.6
		v16.4h1.6v-16.1c4-0.2,7.8-6.8,10.7-12.1C447.3,212.2,447.8,210.2,440.3,198.9z"/>
	
		<linearGradient id="SVGID_00000040554771861829111030000003726652610358158997_" gradientUnits="userSpaceOnUse" x1="288.8772" y1="243.8957" x2="288.8772" y2="189.6449">
		<stop  offset="0" style="stop-color:#6B9E34"/>
		<stop  offset="1" style="stop-color:#1F4A6E"/>
	</linearGradient>
	<path style="fill:url(#SVGID_00000040554771861829111030000003726652610358158997_);" d="M295.3,210.6c-5-7.4-3.3-9-7.4-8.7
		c0,0-7.4,0.8-5,5.1c2.5,4.3-3.2,10.9-4.3,16.6c-1.1,5.7,5.7,3.2,9.2,7.1c0.5,0.5,1,0.9,1.4,1.1v10.8h1.1V232c2.7-0.1,5.2-4.5,7.1-8
		C299.9,219.4,300.3,218,295.3,210.6z"/>
	
		<linearGradient id="SVGID_00000034091679858695989520000015307178321607408010_" gradientUnits="userSpaceOnUse" x1="559.2897" y1="249.3292" x2="559.2897" y2="167.151">
		<stop  offset="0" style="stop-color:#6B9E34"/>
		<stop  offset="1" style="stop-color:#1F4A6E"/>
	</linearGradient>
	<path style="fill:url(#SVGID_00000034091679858695989520000015307178321607408010_);" d="M573.6,186.1c-6.3-1.4-3-13.3-14.3-15.4
		c-11.3-2-10.4,13.5-14.9,18.1c-7,7.1-3.2,16.4,2.7,28.5c2,4.2,4.5,4.6,7.3,3.3v25.9h2.1v-27.3c4.6-3.5,9.8-10.6,14.6-12.8
		C579.6,202.4,579.9,187.5,573.6,186.1z"/>
	<path class="st15" d="M528.7,0.3v132.5c-4.6-3.7-14.7-4.8-18.9-4.8c-5.1,0-12.6-12.6-12.6-12.6s6,11.6,7.7,13c1.8,1.3,9.7,1,15.7,2
		c3.2,0.5,5.9,3,8,6v247.2c5.2-1.7,10.2-3.3,15.4-4.7V0.4C539-0.1,533.8-0.1,528.7,0.3z"/>
	
		<linearGradient id="SVGID_00000063618590749645299360000016817695576057170086_" gradientUnits="userSpaceOnUse" x1="369.2434" y1="300.2145" x2="415.5359" y2="300.2145">
		<stop  offset="0" style="stop-color:#FADDAF"/>
		<stop  offset="1" style="stop-color:#FABD5A"/>
	</linearGradient>
	<path style="fill:url(#SVGID_00000063618590749645299360000016817695576057170086_);" d="M415.5,291.6c0,0-20.3,9.3-27.4,17.1
		c0,0,0,0.1,0,0.1l-18.8-0.4l-0.1,0c0,0,15.5-9.9,31.5-16L415.5,291.6z"/>
	
		<linearGradient id="SVGID_00000016757122059774604800000014652160893273202084_" gradientUnits="userSpaceOnUse" x1="376.6098" y1="261.6934" x2="376.6098" y2="316.7355">
		<stop  offset="0" style="stop-color:#FADDAF"/>
		<stop  offset="1" style="stop-color:#FABD5A"/>
	</linearGradient>
	<path style="fill:url(#SVGID_00000016757122059774604800000014652160893273202084_);" d="M376.1,293.7c0,0-1.7-21.4-8.7-37.6l2.1,0
		c0,0,9.5,14.3,16.4,37.1L376.1,293.7z"/>
	
		<linearGradient id="SVGID_00000149361925005680326890000009388274657942893475_" gradientUnits="userSpaceOnUse" x1="286.6869" y1="257.0272" x2="301.7094" y2="257.0272">
		<stop  offset="0" style="stop-color:#426120"/>
		<stop  offset="1" style="stop-color:#1F4A6E"/>
	</linearGradient>
	<path style="fill:url(#SVGID_00000149361925005680326890000009388274657942893475_);" d="M286.7,267.8c0,0,2.2-10.8,8.1-12.9
		c5.9-2.1,3-8.7,3-8.7S311.8,263.4,286.7,267.8z"/>
	
		<linearGradient id="SVGID_00000023977012169151283510000009414314799573587091_" gradientUnits="userSpaceOnUse" x1="347.638" y1="373.05" x2="347.638" y2="-122.1334">
		<stop  offset="0" style="stop-color:#426120"/>
		<stop  offset="1" style="stop-color:#1F4A6E"/>
	</linearGradient>
	<path style="fill:url(#SVGID_00000023977012169151283510000009414314799573587091_);" d="M340.2,159.2c0,0,7.1,0.4,9,4
		c1.9,3.5,5.8,1.2,5.8,1.2S345.3,174.9,340.2,159.2z"/>
	
		<linearGradient id="SVGID_00000056389183765767035750000016343181119609136785_" gradientUnits="userSpaceOnUse" x1="72.4716" y1="241.377" x2="95.3997" y2="241.377">
		<stop  offset="0" style="stop-color:#426120"/>
		<stop  offset="1" style="stop-color:#1F4A6E"/>
	</linearGradient>
	<path style="fill:url(#SVGID_00000056389183765767035750000016343181119609136785_);" d="M72.5,234.7c0,0,11,0.7,13.9,6.2
		c2.9,5.5,9,1.8,9,1.8S80.3,259,72.5,234.7z"/>
	
		<linearGradient id="SVGID_00000093884096922838170290000000735105364135082908_" gradientUnits="userSpaceOnUse" x1="288.5364" y1="373.0477" x2="288.5364" y2="-122.1299">
		<stop  offset="0" style="stop-color:#426120"/>
		<stop  offset="1" style="stop-color:#1F4A6E"/>
	</linearGradient>
	<path style="fill:url(#SVGID_00000093884096922838170290000000735105364135082908_);" d="M274.1,146.3c0,0,11.8-6.8,18.4-3.1
		c6.7,3.7,10.4-4.2,10.4-4.2S298.6,165.8,274.1,146.3z"/>
	
		<linearGradient id="SVGID_00000132789849449946992420000012003760090749359500_" gradientUnits="userSpaceOnUse" x1="68.4829" y1="155.9973" x2="76.8124" y2="155.9973">
		<stop  offset="0" style="stop-color:#426120"/>
		<stop  offset="1" style="stop-color:#1F4A6E"/>
	</linearGradient>
	<path style="fill:url(#SVGID_00000132789849449946992420000012003760090749359500_);" d="M68.5,158.6c0,0,2.9-3.6,5.4-3.3
		c2.6,0.3,2.8-2.6,2.8-2.6S78.7,161.7,68.5,158.6z"/>
	
		<linearGradient id="SVGID_00000113312584590266820080000006252782101681402006_" gradientUnits="userSpaceOnUse" x1="590.5656" y1="332.9653" x2="590.5656" y2="9.2222">
		<stop  offset="0" style="stop-color:#426120"/>
		<stop  offset="1" style="stop-color:#1F4A6E"/>
	</linearGradient>
	<path style="fill:url(#SVGID_00000113312584590266820080000006252782101681402006_);" d="M608.7,215.6v-191
		C597.6,17.5,580,7.7,559.9,2.9v372.5c0.2,0,0.5-0.1,0.7-0.1c22.6-3.6,38.8,0,48.5,4.2l-0.4-154.1c2.9-6,7.1-12.9,12.5-17.2v-5.5
		C616.6,203.9,612.2,209.6,608.7,215.6z"/>
	<path class="st24" d="M578.7,183.7c0,0-0.4,176.7,0,182.4C578.7,366.1,584.4,213.7,578.7,183.7z"/>
	<path class="st24" d="M559.9,2.9v247c-2.1-3.3-4.7-6.9-7.3-9.3c-6-5.5-17.4-6.3-23.4-16.3c-7.6-12.7-17.2-18.8-17.2-18.8v2
		c8,3.3,16.6,24.5,30.5,32.5c13.9,8,17.4,29.8,17.4,29.8l0,0v105.6c0.2,0,0.5-0.1,0.7-0.1c4.5-0.7,8.8-1.2,12.8-1.4V6.9
		C569.1,5.4,564.6,4,559.9,2.9z"/>
	
		<linearGradient id="SVGID_00000045590323094492481170000015261547639357274014_" gradientUnits="userSpaceOnUse" x1="515.3417" y1="81.6282" x2="527.6909" y2="4.1027">
		<stop  offset="0" style="stop-color:#6B9E34"/>
		<stop  offset="0.1351" style="stop-color:#61933C"/>
		<stop  offset="1" style="stop-color:#1F4A6E"/>
	</linearGradient>
	<path style="fill:url(#SVGID_00000045590323094492481170000015261547639357274014_);" d="M622.2,34.2V59
		c-7.9,0.4-19.7-2.6-18.5-19.8c1.9-26.6-17.4-15.6-17.4-15.6c-3.9,28.5-42.9,16.9-42.9,16.9c0.6,5.9-2,20.2-23.1,22.5
		c-31.1,3.4-28.8-12.6-39.7-21.1c-10.9-8.5-27.2,1.1-48.1-8.1c-14.7-6.4-10.6-17.9-6.8-24.2c43.6,0.5,64.7-1.8,92.7-7.8
		C569.4-9.3,622.2,34.2,622.2,34.2z"/>
	
		<linearGradient id="SVGID_00000142881577116667740020000012702339036367318207_" gradientUnits="userSpaceOnUse" x1="138.7491" y1="303.6822" x2="138.7491" y2="-59.2117">
		<stop  offset="0" style="stop-color:#426120"/>
		<stop  offset="1" style="stop-color:#1F4A6E"/>
	</linearGradient>
	<path style="fill:url(#SVGID_00000142881577116667740020000012702339036367318207_);" d="M167.2,8V348c-15.1-1-35.5-5.2-56.9-13.2
		V23.5C127,16.7,145.9,11.5,167.2,8z"/>
	
		<linearGradient id="SVGID_00000055674623436479637300000016518397920490838407_" gradientUnits="userSpaceOnUse" x1="244.936" y1="327.6762" x2="244.936" y2="-67.5653">
		<stop  offset="0" style="stop-color:#426120"/>
		<stop  offset="1" style="stop-color:#1F4A6E"/>
	</linearGradient>
	<path style="fill:url(#SVGID_00000055674623436479637300000016518397920490838407_);" d="M319,72.1c-12.1,19-21.7,41.4-44.7,47.8
		c-2.6,0.7-5,1.8-7.1,3V4.2c-4.7-0.2-9.5-0.4-14.5-0.6c-12.8-0.5-25.1-0.6-36.8-0.2v71.8c-4-2.5-9.7-5.8-17.8-10.4
		c-0.6-0.3-1.1-0.6-1.7-1c-2-1.1-4-2.4-5.9-3.9c-3-2.3-5.9-5-8.7-8c-4-4.2-7.8-9-11.3-14c-6.7-9.4-12.4-19.5-16.6-27.5
		c-2.8,0.6-5.5,1.2-8.2,1.8c6.4,10.2,13,26.4,21.4,40c1.1,1.8,2.2,3.6,3.4,5.3c0.4,0.6,0.8,1.2,1.2,1.7c3.1,4.3,6.5,8.2,10.1,11.2
		c1,0.9,2.1,1.6,3.1,2.4c0.7,0.5,1.4,1,2.1,1.5c3.9,2.8,7.6,5.8,11,9c7.2,6.6,13.3,13.7,17.8,19.4v92.9c-5.6-1.9-11.6-3.6-15.1-3.3
		c-7.7,0.7-29.1-19.3-33.3-20.7c-4.2-1.4-23.2,13-23.2,13s6.3-3.2,18.6-8.8c12.3-5.6,25.6,20.4,40,20.4c4.7,0,9.2,1.8,13,4.3v158.1
		c15.8,4.9,33.1,11,51.2,17.2V146.3c3.4-4,8-8.2,14.4-12.5C313.7,112,322.8,68,343.3,59l2.2-12.8C345.5,46.2,331.2,53.1,319,72.1z"
		/>
	
		<linearGradient id="SVGID_00000060752017509203380030000001862529419505850785_" gradientUnits="userSpaceOnUse" x1="77.4294" y1="282.382" x2="77.4294" y2="-61.041">
		<stop  offset="0" style="stop-color:#426120"/>
		<stop  offset="1" style="stop-color:#1F4A6E"/>
	</linearGradient>
	<path style="fill:url(#SVGID_00000060752017509203380030000001862529419505850785_);" d="M78.6,110.9c7-9,33.5-34.8,37.9-43.9
		c4.4-9.1,28.1-38.4,28.1-38.4v-4.9l-32.1,33c0,0-24.3,38.1-36.7,43.5c-4.7,2-9.8,8.4-14.3,15.6V52.2C46.1,65.1,33.9,80,24.6,96.6
		c-4.6,8.2-8.5,16.8-11.8,25.7c0,0.1-0.1,0.2-0.1,0.4c-0.8,2.3-1.6,4.6-2.4,7v119.3c1,2.4,2.2,4.8,3.4,7.1c0.9,1.9,1.9,3.7,3,5.5
		c2.4,4.3,5.1,8.3,8,12.2c10.3,14,23.1,25.8,37,35.6v-93c3.8-8.2,10-18.2,18.3-22c15-6.8,31.8-45.2,44.9-42.8v-3.7
		c0,0-7.3-0.6-15.7,11.1c-8.4,11.8-22.6,30-33.7,32.5c-5.2,1.1-10.1,7.8-13.8,14.5v-55C66.4,137.1,74.1,116.8,78.6,110.9z"/>
	<path class="st24" d="M32.9,254.3v2.4c0,8.8-0.1,18-0.2,27.1c-0.9-1-1.8-2-2.7-3.1c0-8.1,0-16.2,0-24.1v-2.4c0-1.9,0-3.8,0-5.7
		c0-2.8,0-5.5,0-8.2c0-4.3,0-8.4,0-12.4c0-0.2,0-0.4,0-0.6c0-8.3,0-15.6,0-21.6c0-9.9,0-16,0-16c0.7,3.7,1.3,9.2,1.7,16
		c0.4,6.2,0.6,13.5,0.8,21.6c0,0.2,0,0.5,0,0.7c0.1,3.9,0.1,8,0.2,12.3c0,2.7,0,5.6,0,8.4C32.9,250.6,32.9,252.4,32.9,254.3z"/>
	<path class="st24" d="M24.6,96.6v177.2c-2.9-3.9-5.5-8-8-12.2c-1-1.8-2-3.6-3-5.5c-1.2-2.3-2.3-4.7-3.4-7.1V129.6
		c0.8-2.5,1.6-4.9,2.5-7.4C16,113.4,19.9,104.8,24.6,96.6z"/>
	<path class="st24" d="M129.2,340.9c-6.1-1.7-12.5-3.8-18.9-6.2V67.1c0,0,14.6,11.2,14.4,31.6c-0.2,20.4,1.2,52.7,3.3,64.6
		c2.1,11.9-2.3,34-3.3,53.5c-0.9,19.5,2.3,48.3,3.8,68.6C129.1,293.1,129.3,315.6,129.2,340.9z"/>
	<path class="st24" d="M138.5,98.7v244.7c-1.2-0.3-2.3-0.6-3.5-0.9V114.1L138.5,98.7z"/>
	<path class="st24" d="M235,364.8c-6.5-2.2-12.9-4.3-19-6.2V40.9h17.3c0,0,3.4,139,0,155.4c-3.5,16.4,0.9,45.2,1.5,72.6
		C235.1,282.9,235.1,326.2,235,364.8z"/>
	<path class="st24" d="M245,368.2c-1.3-0.4-2.5-0.9-3.7-1.3c-0.2-1.4-0.4-2.7-0.6-4c-0.9-5.9-0.8-33-0.5-59.3
		c0.3-26,0.8-51.2,0.5-54.4c-0.5-6.6-2.5-33.2-2.5-33.2c4,18.2,5.8,53.5,6.5,87.6C245.1,327.8,245.1,351.5,245,368.2z"/>
	
		<linearGradient id="SVGID_00000142884620306539739910000004506018184044526727_" gradientUnits="userSpaceOnUse" x1="-7.9928" y1="24.9623" x2="383.7933" y2="109.9279">
		<stop  offset="0" style="stop-color:#6B9E34"/>
		<stop  offset="0.1351" style="stop-color:#61933C"/>
		<stop  offset="1" style="stop-color:#1F4A6E"/>
	</linearGradient>
	<path style="fill:url(#SVGID_00000142884620306539739910000004506018184044526727_);" d="M372.6,65.5C367.7,90,276.8,64,264.3,95.9
		c-12.5,32-99.9,17.7-83.6-12.1c16.3-29.8-11.3-39.8-13.3-32.5c-2,7.3-17.5,13-17.5,13s2.8,13.9-16.2,24.6
		c-19,10.6-47.7,3.2-47.7,3.2s11.4,15.4-17.3,31.7c-17.5,10-40.6,4.6-56-1.1c0-0.1,0.1-0.2,0.1-0.4c3.3-8.9,7.2-17.5,11.8-25.7
		c33.2-59,103.2-98,228.2-92.9c37.1,1.5,67.9,2.8,93.8,3.8c-1.9,2.8-4.2,6.1-7.1,10c-14.1,18.9,6.7,18.9,17.6,20.7
		C367.9,40,377.4,41,372.6,65.5z"/>
</g>
</svg>
